<svg xmlns="http://www.w3.org/2000/svg" version="1.1" xmlns:xlink="http://www.w3.org/1999/xlink" xmlns:svgjs="http://svgjs.dev/svgjs" viewBox="0 0 6.180438552543647 2.5685384258660124"><g transform="matrix(1,0,0,1,2.6179351978724994,0.43597246610683427)"><rect width="6.180438552543647" height="6.180438552543647" x="-2.6179351978724994" y="-2.2419225294456515" fill="#ffffff"></rect><g><path d=" M 0.9403989257812501 0.6072707519531251 Q 0.9139958496093751 0.649965087890625 0.8690544433593751 0.6918167724609375 Q 0.824113037109375 0.73366845703125 0.7665318603515625 0.7670936279296875 Q 0.70895068359375 0.800518798828125 0.6409768066406251 0.8210233154296875 Q 0.5730029296875 0.84152783203125 0.5005349121093751 0.84152783203125 Q 0.44379638671875005 0.84152783203125 0.3873387451171875 0.831416015625 Q 0.330881103515625 0.8213041992187501 0.2789176025390625 0.800518798828125 Q 0.2269541015625 0.7797333984375 0.18229357910156252 0.7479935302734375 Q 0.137633056640625 0.716253662109375 0.10448876953125001 0.67299755859375 Q 0.07134448242187501 0.6297414550781251 0.052525268554687504 0.5746882324218751 Q 0.0337060546875 0.519635009765625 0.0337060546875 0.452222900390625 Q 0.0337060546875 0.38649609375 0.0530870361328125 0.327510498046875 Q 0.072468017578125 0.26852490234375004 0.10729760742187501 0.21824670410156244 Q 0.142127197265625 0.16796850585937495 0.18987744140625 0.12752124023437494 Q 0.23762768554687502 0.08707397460937494 0.29436621093750004 0.05870471191406246 Q 0.351104736328125 0.030335449218749977 0.41402270507812505 0.015167724609374988 Q 0.47694067382812505 0 0.54266748046875 0 Q 0.6151354980468751 0 0.6788961181640626 0.017133911132812485 Q 0.74265673828125 0.03426782226562497 0.790406982421875 0.06544592285156248 Q 0.8381572265625 0.09662402343749998 0.8659647216796875 0.14016101074218745 Q 0.893772216796875 0.18369799804687503 0.893772216796875 0.23706591796874998 Q 0.893772216796875 0.28650146484374994 0.87073974609375 0.3311619873046875 Q 0.8477072753906251 0.375822509765625 0.8075408935546875 0.409528564453125 Q 0.76737451171875 0.443234619140625 0.7137257080078125 0.46289648437500003 Q 0.660076904296875 0.482558349609375 0.5994060058593751 0.482558349609375 Q 0.5505322265625 0.482558349609375 0.512893798828125 0.4704803466796875 Q 0.47525537109375005 0.45840234375 0.449975830078125 0.43705517578125 Q 0.4246962890625 0.4157080078125 0.411775634765625 0.38705786132812503 Q 0.39885498046875 0.35840771484375 0.39885498046875 0.325263427734375 Q 0.39885498046875 0.29773681640625005 0.4075623779296875 0.2749852294921875 Q 0.41626977539062504 0.252233642578125 0.4266624755859375 0.23594238281250002 Q 0.43705517578125 0.21965112304687495 0.4463243408203125 0.21038195800781245 Q 0.455593505859375 0.20111279296874995 0.45671704101562505 0.1999892578125 Q 0.45952587890625 0.19718041992187496 0.4631773681640625 0.19633776855468754 Q 0.466828857421875 0.1954951171875 0.47019946289062503 0.1954951171875 Q 0.47918774414062504 0.1954951171875 0.4853671875 0.20111279296874995 Q 0.49154663085937506 0.20673046875 0.49154663085937506 0.21571874999999996 Q 0.49154663085937506 0.22583056640625 0.48424365234375005 0.23257177734375 Q 0.48312011718750003 0.233133544921875 0.47637890625 0.24015563964843745 Q 0.46963769531250005 0.247177734375 0.46177294921875 0.25925573730468754 Q 0.453908203125 0.27133374023437495 0.44744787597656255 0.288186767578125 Q 0.440987548828125 0.30503979492187505 0.440987548828125 0.325263427734375 Q 0.440987548828125 0.3572841796875 0.45531262207031253 0.379193115234375 Q 0.46963769531250005 0.40110205078125 0.492670166015625 0.4148653564453125 Q 0.51570263671875 0.428628662109375 0.543791015625 0.4345272216796875 Q 0.57187939453125 0.44042578125 0.5999677734375001 0.44042578125 Q 0.6522121582031251 0.44042578125 0.6979962158203126 0.42357275390625 Q 0.7437802734375001 0.4067197265625 0.778048095703125 0.37863134765625 Q 0.81231591796875 0.35054296875 0.8319777832031251 0.314028076171875 Q 0.8516396484375001 0.27751318359375 0.8516396484375001 0.23762768554687497 Q 0.8516396484375001 0.19380981445312495 0.826921875 0.15757580566406248 Q 0.8022041015625001 0.12134179687500002 0.760071533203125 0.09578137207031245 Q 0.7179389648437501 0.070220947265625 0.6614813232421876 0.05617675781249998 Q 0.605023681640625 0.042132568359374956 0.5409821777343751 0.042132568359374956 Q 0.492670166015625 0.042132568359374956 0.4395831298828125 0.0536488037109375 Q 0.38649609375000005 0.06516503906249993 0.33481347656250005 0.08819750976562502 Q 0.28313085937500004 0.11122998046874999 0.2362232666015625 0.14549780273437496 Q 0.189315673828125 0.17976562500000004 0.15392431640625 0.22554968261718744 Q 0.118532958984375 0.27133374023437495 0.0974666748046875 0.328072265625 Q 0.07640039062500001 0.384810791015625 0.07640039062500001 0.452222900390625 Q 0.07640039062500001 0.51345556640625 0.09353430175781251 0.56289111328125 Q 0.110668212890625 0.61232666015625 0.141003662109375 0.6508077392578125 Q 0.17133911132812502 0.689288818359375 0.2120672607421875 0.717377197265625 Q 0.25279541015625 0.745465576171875 0.29970300292968755 0.7637230224609375 Q 0.346610595703125 0.78198046875 0.39773144531250004 0.7906878662109376 Q 0.448852294921875 0.7993952636718751 0.49941137695312504 0.7993952636718751 Q 0.5668234863281251 0.7993952636718751 0.6291796875000001 0.7805760498046875 Q 0.6915358886718751 0.7617568359375 0.7446229248046875 0.7311405029296876 Q 0.7977099609375 0.700524169921875 0.838718994140625 0.662323974609375 Q 0.8797280273437501 0.624123779296875 0.903884033203125 0.58536181640625 Q 0.9066928710937501 0.580305908203125 0.911748779296875 0.5777779541015625 Q 0.9168046875000001 0.57525 0.92242236328125 0.57525 Q 0.9319724121093751 0.57525 0.937590087890625 0.5817103271484375 Q 0.9432077636718751 0.588170654296875 0.9432077636718751 0.596035400390625 Q 0.9432077636718751 0.59884423828125 0.9426459960937501 0.601653076171875 Q 0.942084228515625 0.6044619140625 0.9403989257812501 0.6072707519531251 M 1.438125 0.6589533691406251 Q 1.4358779296875 0.663447509765625 1.4288558349609375 0.6777725830078125 Q 1.421833740234375 0.6920976562500001 1.4108792724609376 0.7106359863281251 Q 1.3999248046875001 0.7291743164062501 1.38531884765625 0.74939794921875 Q 1.3707128906250001 0.76962158203125 1.352736328125 0.786474609375 Q 1.334759765625 0.8033276367187501 1.3139743652343752 0.8142821044921875 Q 1.29318896484375 0.8252365722656251 1.270156494140625 0.8252365722656251 Q 1.237573974609375 0.8252365722656251 1.2153841552734375 0.804451171875 Q 1.1931943359375001 0.783665771484375 1.18308251953125 0.752206787109375 Q 1.1639824218750001 0.7842275390625 1.137579345703125 0.8030467529296875 Q 1.1111762695312501 0.8218659667968751 1.084773193359375 0.8218659667968751 Q 1.06398779296875 0.8218659667968751 1.047134765625 0.8142821044921875 Q 1.03028173828125 0.8066982421875001 1.018484619140625 0.7929349365234375 Q 1.0066875 0.779171630859375 1.0002271728515626 0.76063330078125 Q 0.993766845703125 0.742094970703125 0.993766845703125 0.72018603515625 Q 0.993766845703125 0.6763681640625 1.0086536865234375 0.6429429931640626 Q 1.0235405273437501 0.609517822265625 1.046572998046875 0.587047119140625 Q 1.06960546875 0.564576416015625 1.0974129638671875 0.553341064453125 Q 1.125220458984375 0.542105712890625 1.151061767578125 0.542105712890625 Q 1.1684765625 0.542105712890625 1.18308251953125 0.5468807373046876 Q 1.1976884765625 0.5516557617187501 1.2080811767578126 0.5572734375 Q 1.2184738769531251 0.56289111328125 1.224091552734375 0.5676661376953125 Q 1.229709228515625 0.572441162109375 1.2302709960937501 0.5730029296875 Q 1.236450439453125 0.580305908203125 1.236450439453125 0.588170654296875 Q 1.236450439453125 0.5965971679687501 1.2302709960937501 0.6030574951171875 Q 1.224091552734375 0.609517822265625 1.2156650390625001 0.609517822265625 Q 1.2066767578125 0.609517822265625 1.200497314453125 0.6033383789062501 Q 1.199373779296875 0.60221484375 1.19544140625 0.5991251220703125 Q 1.191509033203125 0.596035400390625 1.184767822265625 0.5926647949218751 Q 1.178026611328125 0.589294189453125 1.1687574462890624 0.5867662353515626 Q 1.15948828125 0.58423828125 1.147691162109375 0.58423828125 Q 1.1302763671875 0.58423828125 1.110614501953125 0.59210302734375 Q 1.09095263671875 0.5999677734375 1.074661376953125 0.6165399169921875 Q 1.0583701171875 0.633112060546875 1.0474156494140625 0.6581107177734375 Q 1.036461181640625 0.683109375 1.036461181640625 0.717377197265625 Q 1.036461181640625 0.72805078125 1.038708251953125 0.7390052490234376 Q 1.040955322265625 0.749959716796875 1.046572998046875 0.7589479980468751 Q 1.052190673828125 0.767936279296875 1.06174072265625 0.7735539550781251 Q 1.0712907714843751 0.779171630859375 1.0853349609375 0.779171630859375 Q 1.09544677734375 0.779171630859375 1.1086483154296876 0.772430419921875 Q 1.121849853515625 0.765689208984375 1.1339278564453126 0.7516450195312501 Q 1.146005859375 0.737600830078125 1.1558367919921875 0.716253662109375 Q 1.165667724609375 0.694906494140625 1.16960009765625 0.665694580078125 Q 1.1707236328125 0.657829833984375 1.176903076171875 0.6524930419921875 Q 1.18308251953125 0.64715625 1.191509033203125 0.64715625 Q 1.199373779296875 0.64715625 1.2052723388671875 0.653335693359375 Q 1.2111708984375 0.6595151367187501 1.2117326660156251 0.6673798828125 Q 1.21229443359375 0.6780534667968751 1.213979736328125 0.6974344482421875 Q 1.2156650390625001 0.7168154296875 1.2215635986328126 0.73591552734375 Q 1.227462158203125 0.7550156250000001 1.23925927734375 0.769059814453125 Q 1.251056396484375 0.78310400390625 1.271841796875 0.78310400390625 Q 1.28532421875 0.78310400390625 1.2985257568359376 0.775801025390625 Q 1.311727294921875 0.768498046875 1.3243670654296875 0.7564200439453125 Q 1.3370068359375 0.7443420410156251 1.3485230712890626 0.7288934326171875 Q 1.3600393066406251 0.71344482421875 1.36958935546875 0.69771533203125 Q 1.379139404296875 0.68198583984375 1.3864423828125 0.6673798828125 Q 1.393745361328125 0.65277392578125 1.39880126953125 0.642100341796875 Q 1.401610107421875 0.6359208984375 1.4069468994140626 0.63255029296875 Q 1.41228369140625 0.6291796875 1.418463134765625 0.6291796875 Q 1.42801318359375 0.6291796875 1.4339117431640624 0.6362017822265625 Q 1.439810302734375 0.643223876953125 1.439810302734375 0.651088623046875 Q 1.439810302734375 0.6550209960937501 1.438125 0.6589533691406251 M 1.5347490234375 0.765689208984375 Q 1.5431755371093752 0.748836181640625 1.5563770751953125 0.7238375244140626 Q 1.5695786132812501 0.6988388671875 1.5839036865234375 0.6735593261718751 Q 1.598228759765625 0.6482797851562501 1.6119920654296875 0.6258090820312501 Q 1.62575537109375 0.6033383789062501 1.635305419921875 0.591541259765625 Q 1.6515966796875001 0.57187939453125 1.6690114746093752 0.5634528808593751 Q 1.6864262695312502 0.5550263671875 1.7010322265625 0.5550263671875 Q 1.7156381835937502 0.5550263671875 1.7260308837890626 0.561205810546875 Q 1.7364235839843751 0.56738525390625 1.7431647949218751 0.5777779541015625 Q 1.7499060058593752 0.588170654296875 1.753276611328125 0.6019339599609375 Q 1.7566472167968752 0.615697265625 1.7566472167968752 0.6314267578125 Q 1.7566472167968752 0.6404150390625001 1.7558045654296877 0.6550209960937501 Q 1.7549619140625001 0.6696269531250001 1.7541192626953126 0.68647998046875 Q 1.753276611328125 0.7033330078125 1.7524339599609375 0.7213095703125 Q 1.75159130859375 0.7392861328125 1.7510295410156251 0.7550156250000001 Q 1.7594560546875 0.73816259765625 1.7701296386718752 0.7176580810546875 Q 1.78080322265625 0.697153564453125 1.7917576904296877 0.676929931640625 Q 1.8027121582031251 0.656706298828125 1.812823974609375 0.6390106201171875 Q 1.8229357910156252 0.62131494140625 1.8313623046875 0.61007958984375 Q 1.855518310546875 0.576935302734375 1.8765845947265625 0.565699951171875 Q 1.89765087890625 0.554464599609375 1.9139421386718751 0.554464599609375 Q 1.933042236328125 0.554464599609375 1.945401123046875 0.5614866943359376 Q 1.9577600097656251 0.5685087890625 1.9647821044921876 0.5794632568359375 Q 1.97180419921875 0.590417724609375 1.974613037109375 0.603900146484375 Q 1.977421875 0.617382568359375 1.977421875 0.6297414550781251 Q 1.977421875 0.648841552734375 1.974613037109375 0.6696269531250001 Q 1.97180419921875 0.690412353515625 1.97180419921875 0.7190625 Q 1.97180419921875 0.730859619140625 1.9729277343750002 0.74265673828125 Q 1.97405126953125 0.754453857421875 1.9777027587890625 0.763442138671875 Q 1.981354248046875 0.772430419921875 1.989218994140625 0.778048095703125 Q 1.997083740234375 0.783665771484375 2.010566162109375 0.783665771484375 Q 2.025172119140625 0.783665771484375 2.0392163085937502 0.7760819091796876 Q 2.053260498046875 0.768498046875 2.0661811523437503 0.75613916015625 Q 2.079101806640625 0.7437802734375001 2.0906180419921876 0.72805078125 Q 2.10213427734375 0.7123212890625 2.111684326171875 0.6965917968750001 Q 2.1212343750000002 0.6808623046875 2.1285373535156253 0.6665372314453125 Q 2.13584033203125 0.6522121582031251 2.1403344726562503 0.642100341796875 Q 2.143143310546875 0.6359208984375 2.1481992187500003 0.63255029296875 Q 2.153255126953125 0.6291796875 2.1594345703125 0.6291796875 Q 2.168984619140625 0.6291796875 2.1748831787109375 0.6362017822265625 Q 2.18078173828125 0.643223876953125 2.18078173828125 0.651088623046875 Q 2.18078173828125 0.6550209960937501 2.1790964355468754 0.6589533691406251 Q 2.176849365234375 0.663447509765625 2.170108154296875 0.6777725830078125 Q 2.163366943359375 0.6920976562500001 2.1521315917968753 0.7103551025390625 Q 2.140896240234375 0.728612548828125 2.1260093994140625 0.748836181640625 Q 2.11112255859375 0.769059814453125 2.09314599609375 0.7861937255859375 Q 2.07516943359375 0.8033276367187501 2.0543840332031253 0.8142821044921875 Q 2.0335986328125 0.8252365722656251 2.010566162109375 0.8252365722656251 Q 1.985848388671875 0.8252365722656251 1.9703997802734377 0.8165291748046876 Q 1.9549511718750001 0.80782177734375 1.9456820068359377 0.7932158203125 Q 1.9364128417968751 0.77860986328125 1.933042236328125 0.759509765625 Q 1.929671630859375 0.7404096679687501 1.929671630859375 0.719624267578125 Q 1.929671630859375 0.6920976562500001 1.9324804687500001 0.6687843017578126 Q 1.9352893066406252 0.645470947265625 1.9352893066406252 0.63255029296875 Q 1.9352893066406252 0.618506103515625 1.9327613525390626 0.6112031250000001 Q 1.9302333984375002 0.603900146484375 1.9265819091796876 0.6008104248046875 Q 1.922930419921875 0.597720703125 1.919559814453125 0.5974398193359375 Q 1.916189208984375 0.597158935546875 1.9145039062500002 0.597158935546875 Q 1.9010214843750002 0.597158935546875 1.8861346435546875 0.6120457763671875 Q 1.871247802734375 0.6269326171875 1.855518310546875 0.651650390625 Q 1.8397888183593751 0.6763681640625 1.8232166748046876 0.7078271484375 Q 1.8066445312500001 0.7392861328125 1.7897915039062502 0.77186865234375 Q 1.7802414550781251 0.78984521484375 1.7737811279296876 0.801642333984375 Q 1.76732080078125 0.813439453125 1.7614222412109375 0.8201806640625 Q 1.755523681640625 0.826921875 1.7499060058593752 0.829730712890625 Q 1.7442883300781251 0.8325395507812501 1.737547119140625 0.8325395507812501 Q 1.722941162109375 0.8325395507812501 1.7153572998046875 0.822427734375 Q 1.7077734375000002 0.81231591796875 1.7077734375000002 0.7960246582031251 Q 1.7077734375000002 0.78759814453125 1.708335205078125 0.7735539550781251 Q 1.70889697265625 0.759509765625 1.709458740234375 0.74265673828125 Q 1.7100205078125001 0.7258037109375001 1.7111440429687501 0.7078271484375 Q 1.712267578125 0.6898505859375 1.7128293457031252 0.6732784423828125 Q 1.71339111328125 0.656706298828125 1.7139528808593751 0.64378564453125 Q 1.7145146484375 0.630864990234375 1.7145146484375 0.624123779296875 Q 1.7145146484375 0.609517822265625 1.709458740234375 0.6030574951171875 Q 1.70440283203125 0.5965971679687501 1.69766162109375 0.5965971679687501 Q 1.6914821777343751 0.5965971679687501 1.6838983154296876 0.60109130859375 Q 1.676314453125 0.60558544921875 1.6662026367187501 0.618506103515625 Q 1.6583378906250001 0.628617919921875 1.6462598876953125 0.6479989013671875 Q 1.634181884765625 0.6673798828125 1.620699462890625 0.69097412109375 Q 1.607217041015625 0.7145683593750001 1.5940155029296876 0.7392861328125 Q 1.58081396484375 0.76400390625 1.5712639160156252 0.783665771484375 Q 1.559466796875 0.8072600097656251 1.547669677734375 0.8159674072265626 Q 1.53587255859375 0.8246748046875 1.5246372070312502 0.8246748046875 Q 1.508345947265625 0.8246748046875 1.5004812011718751 0.8148438720703125 Q 1.4926164550781251 0.805012939453125 1.4926164550781251 0.7887216796875001 Q 1.4926164550781251 0.787036376953125 1.4934591064453127 0.768498046875 Q 1.4943017578125 0.749959716796875 1.4954252929687502 0.7232757568359376 Q 1.4965488281250001 0.6965917968750001 1.4979532470703125 0.66625634765625 Q 1.4993576660156251 0.6359208984375 1.5004812011718751 0.609517822265625 Q 1.50104296875 0.5954736328125 1.4993576660156251 0.583676513671875 Q 1.49767236328125 0.57187939453125 1.494863525390625 0.56963232421875 Q 1.490369384765625 0.570755859375 1.4771678466796876 0.590417724609375 Q 1.46396630859375 0.61007958984375 1.4437426757812502 0.6589533691406251 Q 1.4409338378906251 0.6651328125 1.435316162109375 0.66850341796875 Q 1.429698486328125 0.6718740234375 1.42351904296875 0.6718740234375 Q 1.413968994140625 0.6718740234375 1.408351318359375 0.6654136962890626 Q 1.4027336425781252 0.6589533691406251 1.4027336425781252 0.65052685546875 Q 1.4027336425781252 0.646594482421875 1.4044189453125 0.642100341796875 Q 1.429698486328125 0.5819912109375001 1.45273095703125 0.5536219482421876 Q 1.4757634277343752 0.525252685546875 1.49767236328125 0.525252685546875 Q 1.510593017578125 0.525252685546875 1.5193004150390625 0.5311512451171876 Q 1.5280078125 0.5370498046875001 1.533063720703125 0.5463189697265625 Q 1.5381196289062502 0.5555881347656251 1.5403666992187501 0.56738525390625 Q 1.54261376953125 0.579182373046875 1.54261376953125 0.590417724609375 Q 1.54261376953125 0.6404150390625001 1.5400858154296877 0.68198583984375 Q 1.537557861328125 0.723556640625 1.5347490234375 0.765689208984375 M 2.4341389160156255 0.6589533691406251 Q 2.4341389160156255 0.7106359863281251 2.4156005859375003 0.74715087890625 Q 2.3970622558593755 0.783665771484375 2.3700974121093754 0.802765869140625 L 2.3723444824218753 0.802765869140625 Q 2.4054887695312503 0.802765869140625 2.432734497070313 0.7878790283203125 Q 2.4599802246093754 0.7729921875 2.4818891601562503 0.7496788330078126 Q 2.503798095703125 0.726365478515625 2.521212890625 0.69771533203125 Q 2.5386276855468752 0.669065185546875 2.5521101074218753 0.642100341796875 Q 2.5549189453125005 0.6359208984375 2.5602557373046877 0.63255029296875 Q 2.5655925292968753 0.6291796875 2.5717719726562502 0.6291796875 Q 2.5813220214843753 0.6291796875 2.5869396972656253 0.6359208984375 Q 2.5925573730468754 0.642662109375 2.5925573730468754 0.65052685546875 Q 2.5925573730468754 0.6550209960937501 2.5908720703125003 0.6589533691406251 Q 2.5762661132812505 0.691535888671875 2.5560424804687503 0.7243992919921876 Q 2.5358188476562504 0.7572626953125 2.5088540039062504 0.783665771484375 Q 2.4818891601562503 0.81006884765625 2.4481831054687504 0.8266409912109375 Q 2.4144770507812505 0.843213134765625 2.3734680175781255 0.843213134765625 Q 2.3436943359375 0.843213134765625 2.3156059570312504 0.8339439697265625 Q 2.2875175781250006 0.8246748046875 2.2661704101562505 0.805012939453125 Q 2.2583056640625006 0.79883349609375 2.2526879882812505 0.7918114013671875 Q 2.2470703125000004 0.7847893066406251 2.2436997070312503 0.77860986328125 Q 2.242576171875 0.7774863281250001 2.242576171875 0.77636279296875 Q 2.2392055664062505 0.771306884765625 2.2392055664062505 0.765689208984375 Q 2.2392055664062505 0.75838623046875 2.244261474609375 0.752206787109375 Q 2.2448232421875005 0.751083251953125 2.2453850097656254 0.7508023681640625 Q 2.2459467773437503 0.750521484375 2.246508544921875 0.749959716796875 Q 2.252126220703125 0.74490380859375 2.2588674316406254 0.7443420410156251 L 2.2605527343750005 0.7443420410156251 Q 2.2633615722656253 0.7443420410156251 2.2644851074218755 0.74490380859375 Q 2.2650468750000003 0.74490380859375 2.265327758789063 0.7451846923828125 Q 2.265608642578125 0.745465576171875 2.2661704101562505 0.745465576171875 Q 2.267855712890625 0.745465576171875 2.2701027832031255 0.746589111328125 Q 2.2706645507812504 0.74715087890625 2.2712263183593753 0.74715087890625 Q 2.2762822265625005 0.750521484375 2.2796528320312506 0.7555773925781251 Q 2.2835852050781256 0.7623186035156251 2.2886411132812503 0.767936279296875 Q 2.29313525390625 0.772430419921875 2.2993146972656255 0.7760819091796876 Q 2.3054941406250005 0.7797333984375 2.3133588867187505 0.7797333984375 Q 2.3274030761718754 0.7797333984375 2.3414472656250003 0.771306884765625 Q 2.355491455078125 0.7628803710937501 2.3667268066406253 0.74715087890625 Q 2.3779621582031254 0.73142138671875 2.384984252929688 0.70895068359375 Q 2.3920063476562503 0.68647998046875 2.3920063476562503 0.6589533691406251 Q 2.3920063476562503 0.638729736328125 2.387793090820313 0.6244046630859376 Q 2.3835798339843755 0.61007958984375 2.377119506835938 0.60109130859375 Q 2.3706591796875003 0.59210302734375 2.363356201171875 0.5878897705078125 Q 2.3560532226562505 0.583676513671875 2.3493120117187503 0.583676513671875 Q 2.334144287109375 0.583676513671875 2.318695678710938 0.599406005859375 Q 2.3032470703125005 0.6151354980468751 2.2880793457031254 0.63929150390625 Q 2.2729116210937503 0.663447509765625 2.2580247802734377 0.6926594238281251 Q 2.2431379394531255 0.721871337890625 2.2279702148437504 0.74939794921875 Q 2.2268466796875 0.8404042968750001 2.2248804931640627 0.922984130859375 Q 2.222914306640625 1.00556396484375 2.218139282226563 1.0763466796875 Q 2.2133642578125006 1.14712939453125 2.2049377441406253 1.2044296875 Q 2.1965112304687504 1.26172998046875 2.1819052734375 1.3024581298828126 Q 2.1672993164062504 1.3431862792968752 2.1459521484375004 1.36509521484375 Q 2.1246049804687503 1.387004150390625 2.0937077636718753 1.387004150390625 Q 2.0841577148437502 1.387004150390625 2.0717988281250004 1.38307177734375 Q 2.0594399414062505 1.379139404296875 2.0487663574218753 1.3670614013671876 Q 2.0380927734375005 1.3549833984375002 2.0307897949218754 1.3325126953125 Q 2.0234868164062503 1.3100419921875002 2.0234868164062503 1.272403564453125 Q 2.0234868164062503 1.2246533203125 2.0352839355468753 1.1617353515625002 Q 2.0470810546875002 1.0988173828125 2.0687091064453127 1.0283155517578126 Q 2.090337158203125 0.957813720703125 2.1201108398437505 0.883660400390625 Q 2.1498845214843754 0.809507080078125 2.185837646484375 0.7392861328125 Q 2.185837646484375 0.719624267578125 2.186118530273438 0.700524169921875 Q 2.1863994140625005 0.6814240722656251 2.1863994140625005 0.663447509765625 Q 2.1790964355468754 0.6718740234375 2.1689846191406255 0.6718740234375 Q 2.1594345703125004 0.6718740234375 2.1538168945312504 0.6651328125 Q 2.1481992187500003 0.6583916015625 2.1481992187500003 0.65052685546875 Q 2.1481992187500003 0.646594482421875 2.1498845214843754 0.642100341796875 Q 2.1633669433593754 0.6112031250000001 2.1706699218750005 0.5833956298828125 Q 2.177972900390625 0.5555881347656251 2.1816243896484377 0.5345218505859375 Q 2.1852758789062503 0.51345556640625 2.185837646484375 0.5010966796875 Q 2.1863994140625005 0.48873779296875003 2.1863994140625005 0.488176025390625 Q 2.1863994140625005 0.47974951171875 2.1925788574218754 0.473570068359375 Q 2.1987583007812503 0.467390625 2.2077465820312505 0.467390625 Q 2.2161730957031254 0.467390625 2.2223525390625003 0.4732891845703125 Q 2.2285319824218752 0.479187744140625 2.2285319824218752 0.488176025390625 L 2.2285319824218752 0.660638671875 Q 2.2414526367187504 0.638729736328125 2.2543732910156256 0.617382568359375 Q 2.2672939453125003 0.596035400390625 2.2816190185546876 0.579182373046875 Q 2.2959440917968754 0.5623293457031251 2.3125162353515627 0.5519366455078125 Q 2.3290883789062504 0.5415439453124999 2.3493120117187503 0.5415439453124999 Q 2.3684121093750004 0.5415439453124999 2.3841416015625003 0.5505322265625 Q 2.3998710937500003 0.5595205078125001 2.4111064453125004 0.57525 Q 2.4223417968750005 0.5909794921875 2.428240356445313 0.6126075439453125 Q 2.4341389160156255 0.634235595703125 2.4341389160156255 0.6589533691406251 M 2.1847141113281254 0.83928076171875 Q 2.1571875000000005 0.9010751953125 2.1349976806640627 0.963431396484375 Q 2.1128078613281254 1.02578759765625 2.097359252929688 1.083649658203125 Q 2.0819106445312503 1.1415117187500001 2.0734841308593754 1.19207080078125 Q 2.0650576171875 1.2426298828125 2.0650576171875 1.2808300781250002 Q 2.0650576171875 1.290380126953125 2.0661811523437503 1.301615478515625 Q 2.0673046875000005 1.312850830078125 2.07067529296875 1.32240087890625 Q 2.0740458984375003 1.331950927734375 2.0802253417968752 1.3384112548828124 Q 2.08640478515625 1.3448715820312502 2.0965166015625005 1.3448715820312502 Q 2.1150549316406253 1.3448715820312502 2.1285373535156253 1.3215582275390627 Q 2.1420197753906254 1.2982448730468752 2.151288940429688 1.2586402587890626 Q 2.16055810546875 1.21903564453125 2.1667375488281255 1.1676339111328127 Q 2.1729169921875005 1.116232177734375 2.176568481445313 1.060055419921875 Q 2.1802199707031256 1.0038786621093752 2.1819052734375 0.9468592529296875 Q 2.1835905761718752 0.88983984375 2.1847141113281254 0.83928076171875 M 2.7442346191406255 0.7527685546875 Q 2.7245727539062505 0.7847893066406251 2.6984505615234378 0.8033276367187501 Q 2.6723283691406254 0.8218659667968751 2.6459252929687502 0.8218659667968751 Q 2.624578125 0.8218659667968751 2.6077250976562505 0.8140012207031251 Q 2.5908720703125003 0.806136474609375 2.5785131835937505 0.7918114013671875 Q 2.566154296875 0.7774863281250001 2.559693969726563 0.7572626953125 Q 2.5532336425781255 0.7370390625000001 2.5532336425781255 0.711759521484375 Q 2.5532336425781255 0.672435791015625 2.560817504882813 0.642100341796875 Q 2.5684013671875 0.611764892578125 2.5773896484375003 0.5912603759765626 Q 2.5863779296875005 0.570755859375 2.5942426757812505 0.5600822753906249 Q 2.6021074218750004 0.54940869140625 2.6021074218750004 0.54940869140625 Q 2.6049162597656252 0.5460380859375 2.6091295166015627 0.544352783203125 Q 2.6133427734375 0.54266748046875 2.6178369140625004 0.54266748046875 Q 2.6268251953125 0.54266748046875 2.6327237548828126 0.5491278076171875 Q 2.638622314453125 0.5555881347656251 2.638622314453125 0.5640146484375 Q 2.638622314453125 0.56738525390625 2.637217895507813 0.570755859375 Q 2.6358134765625003 0.5741264648437501 2.6341281738281253 0.5774970703125 Q 2.6313193359375004 0.582552978515625 2.6251398925781255 0.5929456787109375 Q 2.61896044921875 0.6033383789062501 2.6122192382812504 0.62019140625 Q 2.60547802734375 0.63704443359375 2.6004221191406254 0.6597960205078125 Q 2.5953662109375 0.682547607421875 2.5953662109375 0.711759521484375 Q 2.5953662109375 0.74490380859375 2.608567749023438 0.7620377197265625 Q 2.6217692871093754 0.779171630859375 2.6459252929687502 0.779171630859375 Q 2.656037109375 0.779171630859375 2.6692386474609378 0.7727113037109375 Q 2.6824401855468754 0.7662509765625001 2.6950799560546876 0.7527685546875 Q 2.7077197265625004 0.7392861328125 2.7172697753906254 0.7185007324218751 Q 2.7268198242187505 0.69771533203125 2.7296286621093753 0.6696269531250001 L 2.73805517578125 0.5730029296875 Q 2.7391787109375003 0.564576416015625 2.7453581542968752 0.558958740234375 Q 2.75153759765625 0.553341064453125 2.7599641113281255 0.553341064453125 Q 2.7695141601562505 0.553341064453125 2.7751318359375 0.5603631591796876 Q 2.78074951171875 0.56738525390625 2.78074951171875 0.57637353515625 L 2.7734465332031255 0.6696269531250001 Q 2.7723229980468753 0.6814240722656251 2.774289184570313 0.700524169921875 Q 2.7762553710937503 0.719624267578125 2.7824348144531252 0.73816259765625 Q 2.7886142578125 0.756700927734375 2.8009731445312505 0.7699024658203125 Q 2.8133320312500003 0.78310400390625 2.8335556640625 0.78310400390625 Q 2.8481616210937504 0.78310400390625 2.8622058105468753 0.7755201416015626 Q 2.87625 0.767936279296875 2.8891706542968754 0.7555773925781251 Q 2.90209130859375 0.743218505859375 2.9130457763671878 0.7277698974609376 Q 2.9240002441406254 0.7123212890625 2.9332694091796876 0.6965917968750001 Q 2.94253857421875 0.6808623046875 2.9492797851562504 0.6665372314453125 Q 2.9560209960937502 0.6522121582031251 2.96051513671875 0.642100341796875 Q 2.9633239746093754 0.6359208984375 2.9683798828125 0.63255029296875 Q 2.9734357910156253 0.6291796875 2.979615234375 0.6291796875 Q 2.9897270507812506 0.6291796875 2.9953447265625 0.6359208984375 Q 3.0009624023437502 0.642662109375 3.0009624023437502 0.65052685546875 Q 3.0009624023437502 0.6550209960937501 2.999277099609375 0.6589533691406251 Q 2.9970300292968752 0.663447509765625 2.990569702148438 0.6777725830078125 Q 2.9841093750000005 0.6920976562500001 2.9737166748046877 0.7103551025390625 Q 2.9633239746093754 0.728612548828125 2.948718017578125 0.748836181640625 Q 2.9341120605468753 0.769059814453125 2.9161354980468754 0.7861937255859375 Q 2.898158935546875 0.8033276367187501 2.877092651367188 0.8142821044921875 Q 2.8560263671875004 0.8252365722656251 2.831870361328125 0.8252365722656251 Q 2.7987260742187505 0.8252365722656251 2.776817138671875 0.8064173583984375 Q 2.7549082031250003 0.78759814453125 2.7442346191406255 0.7527685546875 M 3.028489013671875 0.6078325195312501 Q 3.025118408203125 0.61682080078125 3.0203433837890628 0.62805615234375 Q 3.015568359375 0.63929150390625 3.009388916015625 0.651650390625 Q 3.0043330078125003 0.661200439453125 2.9989962158203127 0.6665372314453125 Q 2.993659423828125 0.6718740234375 2.9852329101562503 0.6718740234375 Q 2.975682861328125 0.6718740234375 2.970065185546875 0.6659754638671875 Q 2.964447509765625 0.660076904296875 2.964447509765625 0.6522121582031251 Q 2.964447509765625 0.6494033203125 2.96500927734375 0.6474371337890625 Q 2.9655710449218753 0.645470947265625 2.967818115234375 0.640976806640625 Q 2.982424072265625 0.612888427734375 2.9894461669921877 0.5918221435546875 Q 2.99646826171875 0.570755859375 3.0009624023437502 0.5477233886718751 Q 2.9970300292968752 0.534802734375 2.9953447265625 0.525814453125 Q 2.993659423828125 0.516826171875 2.993659423828125 0.507276123046875 Q 2.993659423828125 0.48873779296875003 3.001524169921875 0.4772215576171875 Q 3.009388916015625 0.465705322265625 3.02343310546875 0.465705322265625 Q 3.036353759765625 0.465705322265625 3.0439376220703127 0.476940673828125 Q 3.0515214843750003 0.488176025390625 3.0515214843750003 0.50446728515625 Q 3.0515214843750003 0.51345556640625 3.049836181640625 0.5224438476562501 Q 3.04815087890625 0.53143212890625 3.0453420410156253 0.5449145507812501 Q 3.0582626953125 0.576935302734375 3.0711833496093752 0.601653076171875 Q 3.08410400390625 0.6263708496093751 3.0942158203125003 0.6468753662109376 Q 3.1043276367187502 0.6673798828125 3.1107879638671876 0.6853564453125001 Q 3.117248291015625 0.7033330078125 3.117248291015625 0.7213095703125 Q 3.117248291015625 0.74490380859375 3.1076982421875003 0.7662509765625001 Q 3.0981481933593753 0.78759814453125 3.0762392578125 0.8022041015625 Q 3.079048095703125 0.802765869140625 3.08185693359375 0.802765869140625 Q 3.0846657714843753 0.802765869140625 3.087474609375 0.802765869140625 Q 3.1194953613281253 0.802765869140625 3.146460205078125 0.7881599121093751 Q 3.173425048828125 0.7735539550781251 3.1950531005859375 0.7502406005859376 Q 3.21668115234375 0.72692724609375 3.2335341796875 0.6985579833984376 Q 3.2503872070312503 0.670188720703125 3.26274609375 0.642100341796875 Q 3.26836376953125 0.6291796875 3.2784755859375 0.6291796875 Q 3.288025634765625 0.6291796875 3.2933624267578128 0.6359208984375 Q 3.2986992187500004 0.642662109375 3.2986992187500004 0.65052685546875 Q 3.2986992187500004 0.6550209960937501 3.2970139160156253 0.6589533691406251 Q 3.2908344726562504 0.67412109375 3.2810035400390625 0.6935020751953125 Q 3.271172607421875 0.712883056640625 3.2574093017578125 0.7333875732421875 Q 3.24364599609375 0.75389208984375 3.22566943359375 0.7735539550781251 Q 3.2076928710937502 0.7932158203125 3.1855030517578125 0.8086644287109376 Q 3.163313232421875 0.824113037109375 3.13691015625 0.8333822021484375 Q 3.110507080078125 0.8426513671875 3.079048095703125 0.8426513671875 Q 3.0414096679687503 0.8426513671875 3.0091080322265626 0.8294498291015625 Q 2.976806396484375 0.816248291015625 2.956582763671875 0.785912841796875 Q 2.953212158203125 0.7808569335937501 2.953212158203125 0.7752392578125 Q 2.953212158203125 0.7668127441406251 2.959672485351563 0.7603524169921876 Q 2.9661328125 0.75389208984375 2.974559326171875 0.75389208984375 Q 2.983547607421875 0.75389208984375 2.98972705078125 0.760071533203125 Q 2.990288818359375 0.761195068359375 2.993659423828125 0.7637230224609375 Q 2.9970300292968752 0.7662509765625001 3.0018050537109375 0.7693406982421875 Q 3.0065800781250003 0.772430419921875 3.0130404052734376 0.774677490234375 Q 3.019500732421875 0.7769245605468751 3.0262419433593752 0.7769245605468751 Q 3.0397243652343753 0.7769245605468751 3.0489935302734374 0.771306884765625 Q 3.0582626953125 0.765689208984375 3.06388037109375 0.7575435791015626 Q 3.069498046875 0.74939794921875 3.0720260009765625 0.7401287841796875 Q 3.0745539550781253 0.730859619140625 3.0745539550781253 0.724118408203125 Q 3.0745539550781253 0.71007421875 3.070059814453125 0.6960300292968751 Q 3.065565673828125 0.68198583984375 3.0585435791015625 0.667941650390625 Q 3.0515214843750003 0.6538974609375 3.043375854492188 0.6390106201171875 Q 3.035230224609375 0.624123779296875 3.028489013671875 0.6078325195312501" fill="#1c3423" fill-rule="nonzero"></path></g><g><path d=" M 0.1179075 1.5612734936523438 C 0.1049725 1.5612734936523438 0.1009925 1.565253493652344 0.1009925 1.574705993652344 C 0.1009925 1.582665993652344 0.1049725 1.587640993652344 0.118405 1.587640993652344 C 0.2134275 1.587640993652344 0.30646 1.5478409936523438 0.30646 1.4448584936523439 C 0.30646 1.3543134936523438 0.235815 1.323468493652344 0.134325 1.323468493652344 L 0.0597 1.323468493652344 C 0.05373 1.323468493652344 0.04975 1.3274484936523439 0.04975 1.3334184936523439 L 0.04975 1.6851509936523439 C 0.04975 1.6851509936523439 0.04975 1.696593493652344 0.064675 1.696593493652344 C 0.0796 1.696593493652344 0.0796 1.6851509936523439 0.0796 1.6851509936523439 L 0.0796 1.350830993652344 L 0.134325 1.350830993652344 C 0.2189 1.350830993652344 0.27661 1.3692384936523438 0.27661 1.4438634936523438 C 0.27661 1.5339109936523438 0.196015 1.5612734936523438 0.1179075 1.5612734936523438 M 0.45027437524414066 1.6707234936523438 L 0.45027437524414066 1.387645993652344 C 0.45027437524414066 1.382670993652344 0.4472893752441407 1.3796859936523438 0.4358468752441407 1.3796859936523438 C 0.4253993752441407 1.3796859936523438 0.4219168752441407 1.3831684936523438 0.4219168752441407 1.387645993652344 L 0.4219168752441407 1.688135993652344 C 0.4219168752441407 1.6931109936523439 0.4253993752441407 1.696593493652344 0.4303743752441407 1.696593493652344 L 0.6268868752441407 1.696593493652344 C 0.6268868752441407 1.696593493652344 0.6353443752441407 1.694603493652344 0.6353443752441407 1.683658493652344 C 0.6353443752441407 1.6732109936523438 0.6268868752441407 1.6707234936523438 0.6268868752441407 1.6707234936523438 M 0.9657190642089845 1.624455993652344 L 0.9950715642089845 1.6871409936523438 C 0.9980565642089845 1.6931109936523439 1.0025340642089844 1.696593493652344 1.0099965642089845 1.696593493652344 C 1.0184540642089845 1.696593493652344 1.0219365642089844 1.6906234936523439 1.0219365642089844 1.686643493652344 C 1.0219365642089844 1.682663493652344 1.0204440642089845 1.680175993652344 1.0204440642089845 1.680175993652344 L 0.8806465642089845 1.3856559936523438 C 0.8781590642089845 1.3801834936523438 0.8756715642089844 1.374213493652344 0.8682090642089845 1.374213493652344 C 0.8607465642089844 1.374213493652344 0.8577615642089844 1.3801834936523438 0.8552740642089844 1.385158493652344 L 0.7174665642089845 1.680175993652344 C 0.7174665642089845 1.680175993652344 0.7159740642089845 1.682663493652344 0.7159740642089845 1.686643493652344 C 0.7159740642089845 1.692115993652344 0.7209490642089844 1.696593493652344 0.7279140642089844 1.696593493652344 C 0.7378640642089844 1.696593493652344 0.7413465642089845 1.6931109936523439 0.7453265642089845 1.6841559936523438 L 0.7726890642089844 1.624455993652344 M 0.8687065642089844 1.417993493652344 L 0.9532815642089845 1.5980884936523438 L 0.7851265642089844 1.5980884936523438 M 1.2886487434082032 1.4050584936523438 C 1.2886487434082032 1.4050584936523438 1.2971062434082032 1.4030684936523439 1.2971062434082032 1.392123493652344 C 1.2971062434082032 1.381675993652344 1.2886487434082032 1.3796859936523438 1.2886487434082032 1.3796859936523438 L 1.0687537434082033 1.3796859936523438 C 1.0687537434082033 1.3796859936523438 1.0602962434082033 1.381675993652344 1.0602962434082033 1.392123493652344 C 1.0602962434082033 1.4030684936523439 1.0687537434082033 1.4050584936523438 1.0687537434082033 1.4050584936523438 L 1.1647712434082031 1.4050584936523438 L 1.1647712434082031 1.688135993652344 C 1.1647712434082031 1.6926134936523438 1.1677562434082032 1.696593493652344 1.1787012434082031 1.696593493652344 C 1.1896462434082031 1.696593493652344 1.1931287434082032 1.6926134936523438 1.1931287434082032 1.688135993652344 L 1.1931287434082032 1.4050584936523438 M 1.4210388376464846 1.6707234936523438 L 1.4210388376464846 1.5846559936523439 L 1.5598413376464846 1.5846559936523439 C 1.5598413376464846 1.5846559936523439 1.5682988376464846 1.582665993652344 1.5682988376464846 1.571720993652344 C 1.5682988376464846 1.560775993652344 1.5598413376464846 1.558288493652344 1.5598413376464846 1.558288493652344 L 1.4210388376464846 1.558288493652344 L 1.4210388376464846 1.4055559936523438 L 1.5857113376464846 1.4055559936523438 C 1.5857113376464846 1.4055559936523438 1.5941688376464846 1.4030684936523439 1.5941688376464846 1.392123493652344 C 1.5941688376464846 1.381675993652344 1.5857113376464846 1.3796859936523438 1.5857113376464846 1.3796859936523438 L 1.4011388376464846 1.3796859936523438 C 1.3961638376464847 1.3796859936523438 1.3926813376464846 1.382670993652344 1.3926813376464846 1.3881434936523438 L 1.3926813376464846 1.688135993652344 C 1.3926813376464846 1.6931109936523439 1.3961638376464847 1.696593493652344 1.4011388376464846 1.696593493652344 L 1.5976513376464845 1.696593493652344 C 1.5976513376464845 1.696593493652344 1.6061088376464845 1.694603493652344 1.6061088376464845 1.683658493652344 C 1.6061088376464845 1.6732109936523438 1.5976513376464845 1.6707234936523438 1.5976513376464845 1.6707234936523438 M 1.7285285266113284 1.627938493652344 C 1.7285285266113284 1.6145059936523438 1.7374835266113284 1.6065459936523439 1.7374835266113284 1.6005759936523438 C 1.7374835266113284 1.5956009936523439 1.7330060266113283 1.5921184936523438 1.7280310266113283 1.5921184936523438 C 1.7200710266113284 1.5921184936523438 1.7016635266113285 1.604555993652344 1.7016635266113285 1.632913493652344 C 1.7016635266113285 1.677688493652344 1.7479310266113284 1.7015684936523439 1.8170835266113283 1.7015684936523439 C 1.8956885266113284 1.7015684936523439 1.9384735266113284 1.658783493652344 1.9384735266113284 1.608038493652344 C 1.9384735266113284 1.504060993652344 1.7404685266113284 1.538885993652344 1.7404685266113284 1.4558034936523438 C 1.7404685266113284 1.4169984936523439 1.7817610266113284 1.398590993652344 1.8240485266113284 1.398590993652344 C 1.8643460266113283 1.398590993652344 1.8892210266113283 1.415008493652344 1.8892210266113283 1.4364009936523439 C 1.8892210266113283 1.4533159936523439 1.8817585266113284 1.455305993652344 1.8817585266113284 1.4612759936523438 C 1.8817585266113284 1.464758493652344 1.8842460266113283 1.468240993652344 1.8917085266113283 1.468240993652344 C 1.9006635266113283 1.468240993652344 1.9170810266113283 1.454808493652344 1.9170810266113283 1.434908493652344 C 1.9170810266113283 1.402073493652344 1.8792710266113284 1.374213493652344 1.8240485266113284 1.374213493652344 C 1.7573835266113285 1.374213493652344 1.7126085266113285 1.409535993652344 1.7126085266113285 1.4607784936523438 C 1.7126085266113285 1.5617709936523438 1.9106135266113284 1.527443493652344 1.9106135266113284 1.6120184936523438 C 1.9106135266113284 1.650325993652344 1.8728035266113283 1.6761959936523438 1.8160885266113285 1.6761959936523438 C 1.7618610266113284 1.6761959936523438 1.7285285266113284 1.658285993652344 1.7285285266113284 1.627938493652344" fill="#67a97b" fill-rule="nonzero"></path></g><g clip-path="url(#SvgjsClipPath1002)"><g clip-path="url(#a8d950f60-ebf9-4798-849b-56ff534a66897ce53ef6-76a4-4346-be80-8111bb1b2fde)"><path d=" M -0.5875197944158457 0.8482990760654793 C -0.5875197944158457 1.2603834358688835 -0.9215792958967817 1.5944429373498197 -1.333663655700186 1.5944429373498197 C -1.7457480155035903 1.5944429373498197 -2.0798121754631413 1.2603834358688835 -2.0798121754631413 0.8482990760654793 C -2.0798121754631413 0.436214716262075 -1.7457480155035903 0.10215055630252398 -1.333663655700186 0.10215055630252398 C -0.9215792958967817 0.10215055630252398 -0.5875197944158457 0.436214716262075 -0.5875197944158457 0.8482990760654793" fill="#1c3423" transform="matrix(1,0,0,1,0,0)" fill-rule="nonzero"></path></g><g clip-path="url(#a8d950f60-ebf9-4798-849b-56ff534a66897ce53ef6-76a4-4346-be80-8111bb1b2fde)"><path d=" M -1.5300231878006312 0.6040131159740164 L -0.7331811037493543 0.4054873913176007 C -0.7450811777186621 0.3894428805914543 -0.7576178342214193 0.37388045611908416 -0.7707610507364784 0.3588373864670912 L -1.5369829548514264 0.5767610160763246 Z" fill="#67a97b" transform="matrix(1,0,0,1,0,0)" fill-rule="nonzero"></path></g><g clip-path="url(#a8d950f60-ebf9-4798-849b-56ff534a66897ce53ef6-76a4-4346-be80-8111bb1b2fde)"><path d=" M -1.5261240411998844 0.634046327604857 L -0.6581469886977094 0.5313408495801715 C -0.6660766191958298 0.5145126203732054 -0.6746356209370765 0.4979882150506897 -0.6838058889090757 0.48180258798836595 L -1.5301070404157011 0.6056575589251076 Z" fill="#67a97b" transform="matrix(1,0,0,1,0,0)" fill-rule="nonzero"></path></g><g clip-path="url(#SvgjsClipPath10007ce53ef6-76a4-4346-be80-8111bb1b2fde)"><path d=" M -1.4484718611666154 1.1661563889234798 L -1.4833685244715058 1.1661563889234798 L -1.4833685244715058 0.5957769257827141 L -1.4484718611666159 0.5957769257827141 Z M -1.142707958793129 0.8523333185460605 L -1.1776046220980194 0.8523333185460605 L -1.1776046220980194 0.5392788971401147 L -1.142707958793129 0.5392788971401147 Z M -1.3899986375912605 1.1534993025265519 L -1.424895300896151 1.1534993025265519 L -1.424895300896151 0.5831244978644008 L -1.3899986375912605 0.5831244978644008 Z M -1.3315300724945205 1.1375207208771358 L -1.3664267357994109 1.1375207208771358 L -1.3664267357994109 0.56714125773637 L -1.3315300724945205 0.56714125773637 Z M -1.2730568489191654 1.1334911368751697 L -1.3079535122240558 1.1334911368751697 L -1.3079535122240558 0.5631070152557888 L -1.2730568489191654 0.5631070152557888 Z M -1.2078800746168397 0.8623024627821394 L -1.24277673792173 0.8623024627821394 L -1.24277673792173 0.5492480413761932 L -1.2078800746168399 0.5492480413761932 Z" fill="#67a97b" transform="matrix(1,0,0,1,0,0)" fill-rule="nonzero"></path></g><g clip-path="url(#b8d950f60-ebf9-4798-849b-56ff534a66897ce53ef6-76a4-4346-be80-8111bb1b2fde)"><path d=" M -1.1601260103345767 1.5004255219420906 C -0.9553951921629944 1.4266305622020332 -0.8257450738292063 1.2617623455389206 -0.7799662044796993 1.0161394020849557 L -1.8873704238779023 1.0161394020849557 C -1.840673834241242 1.2594843494961905 -1.716320406092698 1.4276507690187161 -1.50720595954441 1.5009752224186594 L -1.5069404262633554 1.5748214254234814 C -1.4512343389853046 1.5880980894762031 -1.393441253287738 1.5948016402031737 -1.3336683141788006 1.5948016402031737 C -1.2738907165912485 1.5948016402031737 -1.216102289372297 1.5880980894762031 -1.1603915436156311 1.5748214254234814 Z" fill="#67a97b" transform="matrix(1,0,0,1,0,0)" fill-rule="nonzero"></path></g><g clip-path="url(#b8d950f60-ebf9-4798-849b-56ff534a66897ce53ef6-76a4-4346-be80-8111bb1b2fde)"><path d=" M -1.333668314178801 1.8069673902442802 C -1.8622845165361812 1.8069673902442802 -2.292336628357602 1.3769152784228593 -2.292336628357602 0.8482990760654793 C -2.292336628357602 0.319687532186714 -1.8622845165361812 -0.1103738965919371 -1.333668314178801 -0.1103738965919371 C -0.8050521118214207 -0.1103738965919371 -0.3749999999999998 0.3196875321867138 -0.3749999999999998 0.848299076065479 C -0.3749999999999998 1.3769152784228593 -0.8050521118214207 1.8069673902442802 -1.333668314178801 1.8069673902442802 M -1.333668314178801 -0.08948993696093663 C -1.8507594404426957 -0.08948993696093663 -2.2714573272052165 0.33119863284435425 -2.2714573272052165 0.848299076065479 C -2.2714573272052165 1.365390202329374 -1.8507594404426957 1.7860834306132798 -1.333668314178801 1.7860834306132798 C -0.8165725294362911 1.7860834306132798 -0.3958839596310002 1.365390202329374 -0.3958839596310002 0.8482990760654793 C -0.3958839596310002 0.3311986328443544 -0.8165725294362911 -0.08948993696093628 -1.333668314178801 -0.08948993696093628" fill="#1c3423" transform="matrix(1,0,0,1,0,0)" fill-rule="nonzero"></path></g><g clip-path="url(#b8d950f60-ebf9-4798-849b-56ff534a66897ce53ef6-76a4-4346-be80-8111bb1b2fde)"><path d=" M -1.9287051046287091 0.3334906043229295 L -2.0150686396720094 0.25868475472341934 C -2.0209895659916617 0.2657004235175943 -2.027292487557743 0.27240397424456503 -2.0328873203743463 0.2796991517556394 L -1.9442877155958507 0.35184035158737526 C -1.9394289224004162 0.3454489189276089 -1.933866698934118 0.33963047913748634 -1.9287051046287091 0.3334906043229295" fill="#1c3423" transform="matrix(1,0,0,1,0,0)" fill-rule="nonzero"></path></g><g clip-path="url(#SvgjsClipPath10007ce53ef6-76a4-4346-be80-8111bb1b2fde)"><path d=" M -1.8963940717184002 0.2982838743403138 L -1.9780898111894807 0.21840494152907952 L -1.9971010624172552 0.23835254695846686 L -1.9130155234166848 0.3157112428389916 Z" fill="#1c3423" transform="matrix(1,0,0,1,0,0)" fill-rule="nonzero"></path></g><g clip-path="url(#SvgjsClipPath10007ce53ef6-76a4-4346-be80-8111bb1b2fde)"><path d=" M -2.0122612061179224 0.44968713707495456 L -2.110713493167122 0.3917123707114035 L -2.1244513466027275 0.4156150244849174 L -2.024266105508752 0.47054780431288 Z" fill="#1c3423" transform="matrix(1,0,0,1,0,0)" fill-rule="nonzero"></path></g><g clip-path="url(#c8d950f60-ebf9-4798-849b-56ff534a66897ce53ef6-76a4-4346-be80-8111bb1b2fde)"><path d=" M -1.9589293138827646 0.37048824148318027 L -2.0496531849096957 0.3010303253336787 C -2.0554576492639733 0.3081531391359985 -2.060689120748607 0.31571384992812734 -2.0660184202841556 0.32320002506241635 L -1.973221526273554 0.3898535370856938 C -1.968567706137179 0.38331769158886286 -1.9640350064447936 0.37668867651973204 -1.9589293138827646 0.37048824148318027" fill="#1c3423" transform="matrix(1,0,0,1,0,0)" fill-rule="nonzero"></path></g><g clip-path="url(#c8d950f60-ebf9-4798-849b-56ff534a66897ce53ef6-76a4-4346-be80-8111bb1b2fde)"><path d=" M -2.0351886088101514 0.49157607612261645 L -2.136985683504914 0.4396945997874724 C -2.14107116925026 0.4479261315001598 -2.1456085274212606 0.4559340562393277 -2.149218848347878 0.4643985118827646 L -2.0458751587529385 0.5131308566741755 C -2.0427632950381254 0.5057285341549563 -2.038743027993389 0.4987641086255462 -2.0351886088101514 0.49157607612261645" fill="#1c3423" transform="matrix(1,0,0,1,0,0)" fill-rule="nonzero"></path></g><g clip-path="url(#SvgjsClipPath10007ce53ef6-76a4-4346-be80-8111bb1b2fde)"><path d=" M -1.986937653057954 0.40918971661164116 L -2.0816957665654665 0.3453499256718176 L -2.0965842642189747 0.36854449069585304 L -1.999920832957931 0.42946341554407785 Z" fill="#1c3423" transform="matrix(1,0,0,1,0,0)" fill-rule="nonzero"></path></g><g clip-path="url(#d8d950f60-ebf9-4798-849b-56ff534a66897ce53ef6-76a4-4346-be80-8111bb1b2fde)"><path d=" M -1.7063605788138494 0.15501497162543082 L -1.7605386851061835 0.05441978441333578 C -1.7686537548534962 0.058728877132201596 -1.7765219252342144 0.06348984227672139 -1.7845205330161522 0.06801322501187673 L -1.7272864647523845 0.1669034090508854 C -1.7202987468298994 0.1629623361426038 -1.7134461247872492 0.15876970538911278 -1.7063605788138494 0.15501497162543082" fill="#1c3423" transform="matrix(1,0,0,1,0,0)" fill-rule="nonzero"></path></g><g clip-path="url(#SvgjsClipPath10007ce53ef6-76a4-4346-be80-8111bb1b2fde)"><path d=" M -1.8620773032091549 0.26503622934601745 L -1.9388024459980409 0.1803776974758034 L -1.9587966362135782 0.19933304696019788 L -1.8795326225795226 0.281625071693997 Z" fill="#1c3423" transform="matrix(1,0,0,1,0,0)" fill-rule="nonzero"></path></g><g clip-path="url(#SvgjsClipPath10007ce53ef6-76a4-4346-be80-8111bb1b2fde)"><path d=" M -1.7476601239034362 0.1789892557311023 L -1.8078476676091075 0.08186929356578987 L -1.831051549590373 0.09674381578345309 L -1.7679245058786428 0.19198175258830957 Z" fill="#1c3423" transform="matrix(1,0,0,1,0,0)" fill-rule="nonzero"></path></g><g clip-path="url(#e8d950f60-ebf9-4798-849b-56ff534a66897ce53ef6-76a4-4346-be80-8111bb1b2fde)"><path d=" M -1.6635817696923958 0.13380026001276635 L -1.7115314900764882 0.030093209085857997 C -1.7199621917607664 0.03375428309684231 -1.7282494949164193 0.03773709914558379 -1.7363751565302301 0.04203288977607739 L -1.6852623291665596 0.14422127667449908 C -1.6781835159495484 0.14044766369391154 -1.6709503756036304 0.1369709694623217 -1.6635817696923954 0.1338002600127661" fill="#1c3423" transform="matrix(1,0,0,1,0,0)" fill-rule="nonzero"></path></g><g clip-path="url(#e8d950f60-ebf9-4798-849b-56ff534a66897ce53ef6-76a4-4346-be80-8111bb1b2fde)"><path d=" M -1.8256036559217494 0.23417184025134175 L -1.8970833517901569 0.1450365104321223 C -1.904397163215691 0.15059873389842038 -1.9114128320098662 0.1565243186966877 -1.9182980634028213 0.16260829176786473 L -1.8441397423307948 0.24952618576634894 C -1.8381396218746877 0.24419688623080033 -1.8320137224959758 0.23901199953231644 -1.8256036559217494 0.23417184025134175" fill="#1c3423" transform="matrix(1,0,0,1,0,0)" fill-rule="nonzero"></path></g><g clip-path="url(#e8d950f60-ebf9-4798-849b-56ff534a66897ce53ef6-76a4-4346-be80-8111bb1b2fde)"><path d=" M -1.787427423671906 0.205452319589928 L -1.85338682238155 0.1121569683675224 C -1.8608357296869191 0.11753285268922092 -1.8684476837438129 0.12268978851601486 -1.8757428612548872 0.12827064589677298 L -1.8069697414617893 0.21951160804996794 C -1.8006016011950978 0.21462486398284342 -1.793926001339817 0.21015738299106795 -1.787427423671906 0.205452319589928" fill="#1c3423" transform="matrix(1,0,0,1,0,0)" fill-rule="nonzero"></path></g><g clip-path="url(#e8d950f60-ebf9-4798-849b-56ff534a66897ce53ef6-76a4-4346-be80-8111bb1b2fde)"><path d=" M -2.116297379975743 0.7646887018836379 L -2.2299223318739654 0.7526977779286536 C -2.230970489562338 0.761823737535419 -2.231431678945222 0.7710009404069494 -2.2322049863953106 0.78015019240679 L -2.118263257951269 0.7886891837080666 C -2.1175831200734803 0.7806905759261287 -2.117224417220126 0.7726593587938859 -2.116297379975743 0.7646887018836379" fill="#1c3423" transform="matrix(1,0,0,1,0,0)" fill-rule="nonzero"></path></g><g clip-path="url(#e8d950f60-ebf9-4798-849b-56ff534a66897ce53ef6-76a4-4346-be80-8111bb1b2fde)"><path d=" M -2.1132973197476894 0.9554207918171753 L -2.2265123255277928 0.9708263805969475 C -2.225450192403575 0.979956998682328 -2.224159793827223 0.9890503489387883 -2.2223942304321413 0.9980784804946392 L -2.109710291214147 0.9792116421039294 C -2.111280198507399 0.9713434717232112 -2.1123935748963816 0.9633961072060384 -2.1132973197476894 0.9554207918171753" fill="#1c3423" transform="matrix(1,0,0,1,0,0)" fill-rule="nonzero"></path></g><g clip-path="url(#e8d950f60-ebf9-4798-849b-56ff534a66897ce53ef6-76a4-4346-be80-8111bb1b2fde)"><path d=" M -2.105550269810961 1.0025413030077994 L -2.217619289851777 1.0248088307874519 C -2.216040065601295 1.0338602547363775 -2.213640949114575 1.0427532904123935 -2.2116797296176642 1.0517301787034794 L -2.1003514076766323 1.0260293521845791 C -2.1020470938924887 1.018193791154166 -2.1041993110126143 1.0104513996960527 -2.105550269810961 1.0025413030077994" fill="#1c3423" transform="matrix(1,0,0,1,0,0)" fill-rule="nonzero"></path></g><g clip-path="url(#e8d950f60-ebf9-4798-849b-56ff534a66897ce53ef6-76a4-4346-be80-8111bb1b2fde)"><path d=" M -2.055639329929958 0.5347182465760395 L -2.160408513981084 0.48913503332836195 C -2.16436356232521 0.49744110069888914 -2.1675266693047885 0.5060825785296956 -2.1709459926081913 0.5146169113523574 L -2.064821191280103 0.556948506526772 C -2.0618351064878944 0.549508916178633 -2.0591238719339704 0.5419528638651191 -2.055639329929958 0.5347182465760395" fill="#1c3423" transform="matrix(1,0,0,1,0,0)" fill-rule="nonzero"></path></g><g clip-path="url(#e8d950f60-ebf9-4798-849b-56ff534a66897ce53ef6-76a4-4346-be80-8111bb1b2fde)"><path d=" M -2.118267916429884 0.9079089684228918 L -2.2322049863953106 0.9164433012455535 C -2.2314363374238373 0.925597211724009 -2.230970489562338 0.9347744145955394 -2.2299269903525802 0.9439003742023047 L -2.116302038454358 0.9319047917687056 C -2.117224417220126 0.9239387933370724 -2.1175831200734803 0.9159075762048297 -2.118267916429884 0.9079089684228918" fill="#1c3423" transform="matrix(1,0,0,1,0,0)" fill-rule="nonzero"></path></g><g clip-path="url(#SvgjsClipPath10007ce53ef6-76a4-4346-be80-8111bb1b2fde)"><path d=" M -2.0948282875077093 1.0490601403086195 L -2.2053274002552734 1.0781243883875422 L -2.1977992988134494 1.1046590825785256 L -2.0882505157033435 1.0721988035892749 Z" fill="#1c3423" transform="matrix(1,0,0,1,0,0)" fill-rule="nonzero"></path></g><g clip-path="url(#SvgjsClipPath10007ce53ef6-76a4-4346-be80-8111bb1b2fde)"><path d=" M -2.081156783213607 1.0947913745804085 L -2.189671384071185 1.1305591733863023 L -2.1808202747027035 1.1566792629805513 L -2.073460976541643 1.117585310443555 Z" fill="#1c3423" transform="matrix(1,0,0,1,0,0)" fill-rule="nonzero"></path></g><g clip-path="url(#SvgjsClipPath10007ce53ef6-76a4-4346-be80-8111bb1b2fde)"><path d=" M -2.1204453254541344 0.8601537017260614 L -2.2346898550081504 0.8618447294633029 L -2.233986424737287 0.889376338077894 L -2.119844381712801 0.8842426946441749 Z" fill="#1c3423" transform="matrix(1,0,0,1,0,0)" fill-rule="nonzero"></path></g><g clip-path="url(#SvgjsClipPath10007ce53ef6-76a4-4346-be80-8111bb1b2fde)"><path d=" M -2.0882528285040034 0.624391003473631 L -2.1978016116141093 0.5919307244843803 L -2.2053297130559333 0.6184654186753635 L -2.094830600308369 0.6475296667542865 Z" fill="#1c3423" transform="matrix(1,0,0,1,0,0)" fill-rule="nonzero"></path></g><g clip-path="url(#f8d950f60-ebf9-4798-849b-56ff534a66897ce53ef6-76a4-4346-be80-8111bb1b2fde)"><path d=" M -2.1003514076766323 0.670568799946379 L -2.2116797296176642 0.644863314948864 C -2.213640949114575 0.6538448617185647 -2.216040065601295 0.6627332389159657 -2.217619289851777 0.6717893213435063 L -2.105550269810961 0.6940568491231587 C -2.104203969491229 0.6861467524349057 -2.1020517523711035 0.6784043609767922 -2.1003514076766323 0.670568799946379" fill="#1c3423" transform="matrix(1,0,0,1,0,0)" fill-rule="nonzero"></path></g><g clip-path="url(#SvgjsClipPath10007ce53ef6-76a4-4346-be80-8111bb1b2fde)"><path d=" M -2.073459792679513 0.5790056621037369 L -2.180819090840574 0.5399070510881255 L -2.1896702002090547 0.5660271406823748 L -2.0811555993514768 0.6017949394882683 Z" fill="#1c3423" transform="matrix(1,0,0,1,0,0)" fill-rule="nonzero"></path></g><g clip-path="url(#SvgjsClipPath10007ce53ef6-76a4-4346-be80-8111bb1b2fde)"><path d=" M -2.119844380210438 0.8123401223075088 L -2.233986423234924 0.8072111373524048 L -2.2346898535057873 0.8347380874883809 L -2.1204453239517713 0.8364337737042373 Z" fill="#1c3423" transform="matrix(1,0,0,1,0,0)" fill-rule="nonzero"></path></g><g clip-path="url(#g8d950f60-ebf9-4798-849b-56ff534a66897ce53ef6-76a4-4346-be80-8111bb1b2fde)"><path d=" M -1.6196523163530396 0.11512441924527111 L -1.661182653205676 0.008682841371363603 C -1.6697169860283376 0.012097506196151311 -1.6783258545088393 0.015330490354954401 -1.6867856516736612 0.018917518888496715 L -1.6419990382691467 0.1240314303571321 C -1.6346153496643876 0.12090093272785879 -1.6270919067011786 0.11811050403747975 -1.6196523163530396 0.11512441924527111" fill="#1c3423" transform="matrix(1,0,0,1,0,0)" fill-rule="nonzero"></path></g><g clip-path="url(#g8d950f60-ebf9-4798-849b-56ff534a66897ce53ef6-76a4-4346-be80-8111bb1b2fde)"><path d=" M -2.109710291214147 0.7173818515484139 L -2.222398888910756 0.6985150131577043 C -2.224118695386804 0.7075429877934797 -2.2254908538185623 0.7166337316505443 -2.2265123255277928 0.7257671130553968 L -2.1132973197476894 0.741172701835168 C -2.1123935748963816 0.733197386446305 -2.111280198507399 0.7252546804077471 -2.109710291214147 0.7173818515484139" fill="#1c3423" transform="matrix(1,0,0,1,0,0)" fill-rule="nonzero"></path></g><g clip-path="url(#g8d950f60-ebf9-4798-849b-56ff534a66897ce53ef6-76a4-4346-be80-8111bb1b2fde)"><path d=" M -1.0589950980817577 0.11076874174025553 L -1.0190859117871383 0.0037075862105543506 C -1.0276202446098 0.0002929213857666285 -1.036443403106591 -0.0023344605530877527 -1.0451174902877025 -0.005381105567291239 L -1.0817051813298342 0.10285398657338743 C -1.0741491290163203 0.10552795329839174 -1.0664300299512819 0.10775936455497198 -1.0589950980817577 0.11076874174025553" fill="#1c3423" transform="matrix(1,0,0,1,0,0)" fill-rule="nonzero"></path></g><g clip-path="url(#g8d950f60-ebf9-4798-849b-56ff534a66897ce53ef6-76a4-4346-be80-8111bb1b2fde)"><path d=" M -0.6168775266475128 0.5239292101037223 L -0.5128117728672501 0.4767667726055631 C -0.5167155779466119 0.46845138827780586 -0.5201255842927843 0.4598891045834542 -0.5244626278833404 0.4517833517933715 L -0.6270330100281911 0.5021228717069539 C -0.6232083990852841 0.5091804668086638 -0.6203015084295305 0.5166806173787978 -0.6168775266475128 0.5239292101037223" fill="#1c3423" transform="matrix(1,0,0,1,0,0)" fill-rule="nonzero"></path></g><g clip-path="url(#g8d950f60-ebf9-4798-849b-56ff534a66897ce53ef6-76a4-4346-be80-8111bb1b2fde)"><path d=" M -0.6378406804149681 0.481029280538279 L -0.536840205563369 0.42761050626018815 C -0.5408791065225651 0.4193510236758108 -0.5455841699237054 0.41145490242340266 -0.5501494789663957 0.4034795870345397 L -0.649468243037983 0.459963640241294 C -0.6454759268649368 0.46692340729208903 -0.6413345393762107 0.47379932172781436 -0.6378406804149681 0.481029280538279" fill="#1c3423" transform="matrix(1,0,0,1,0,0)" fill-rule="nonzero"></path></g><g clip-path="url(#SvgjsClipPath10007ce53ef6-76a4-4346-be80-8111bb1b2fde)"><path d=" M -0.5984641490995277 0.5679650401846558 L -0.49171045315841555 0.5272452786110279 L -0.5018333271887889 0.5015910368782777 L -0.6072826491177037 0.5455810504396287 Z" fill="#1c3423" transform="matrix(1,0,0,1,0,0)" fill-rule="nonzero"></path></g><g clip-path="url(#h8d950f60-ebf9-4798-849b-56ff534a66897ce53ef6-76a4-4346-be80-8111bb1b2fde)"><path d=" M -0.7160285854889605 0.3611666257745853 L -0.6263575306290174 0.2903577508267366 C -0.632106093239915 0.28319301071688197 -0.6375285623477633 0.2757627373259729 -0.6436870710767804 0.2689380661550124 L -0.7311593240304484 0.34244420022094035 C -0.7257461718798297 0.3483837604550526 -0.7210550839145349 0.3549149474732687 -0.7160285854889605 0.3611666257745853" fill="#1c3423" transform="matrix(1,0,0,1,0,0)" fill-rule="nonzero"></path></g><g clip-path="url(#SvgjsClipPath10007ce53ef6-76a4-4346-be80-8111bb1b2fde)"><path d=" M -0.6875333182714065 0.3995082092262696 L -0.593744168315812 0.33425224078748916 L -0.6097274084438429 0.3117937153846221 L -0.7014808032446866 0.3798820388213166 Z" fill="#1c3423" transform="matrix(1,0,0,1,0,0)" fill-rule="nonzero"></path></g><g clip-path="url(#SvgjsClipPath10007ce53ef6-76a4-4346-be80-8111bb1b2fde)"><path d=" M -0.6613048534781969 0.4394326353874536 L -0.5637376773658456 0.37997647282433566 L -0.5786028826262788 0.35676793236445525 L -0.6743066672926341 0.4191729118908619 Z" fill="#1c3423" transform="matrix(1,0,0,1,0,0)" fill-rule="nonzero"></path></g><g clip-path="url(#SvgjsClipPath10007ce53ef6-76a4-4346-be80-8111bb1b2fde)"><path d=" M -0.5826613855109184 0.6130114763880463 L -0.4736157180912315 0.5788927790118592 L -0.4824435350666376 0.5527633724603801 L -0.5903851430545719 0.59022685748213 Z" fill="#1c3423" transform="matrix(1,0,0,1,0,0)" fill-rule="nonzero"></path></g><g clip-path="url(#SvgjsClipPath10007ce53ef6-76a4-4346-be80-8111bb1b2fde)"><path d=" M -0.5469365883202211 0.8350258052570639 L -0.4326734248517452 0.8350258052570639 L -0.433255734678619 0.8114585619438294 L -0.547462996403715 0.814896519161692 Z" fill="#1c3423" transform="matrix(1,0,0,1,0,0)" fill-rule="nonzero"></path></g><g clip-path="url(#i8d950f60-ebf9-4798-849b-56ff534a66897ce53ef6-76a4-4346-be80-8111bb1b2fde)"><path d=" M -0.569938696122873 0.6590250899384338 L -0.45901100334272993 0.6316378941609073 C -0.4608976871818009 0.6226330549981316 -0.4636741404363349 0.6138564812874904 -0.46611984170920473 0.6049960549617792 L -0.5761484481166548 0.6357885986068634 C -0.5740195233896039 0.6435216731077469 -0.5715412127664292 0.6511615780363306 -0.569938696122873 0.6590250899384338" fill="#1c3423" transform="matrix(1,0,0,1,0,0)" fill-rule="nonzero"></path></g><g clip-path="url(#SvgjsClipPath10007ce53ef6-76a4-4346-be80-8111bb1b2fde)"><path d=" M -0.5484529269002463 0.7962718247740107 L -0.4343993949694449 0.7894424951244352 L -0.43648639338896045 0.761966788253224 L -0.5502790505173223 0.772257367513737 Z" fill="#1c3423" transform="matrix(1,0,0,1,0,0)" fill-rule="nonzero"></path></g><g clip-path="url(#SvgjsClipPath10007ce53ef6-76a4-4346-be80-8111bb1b2fde)"><path d=" M -0.5528342369909198 0.7529269021385293 L -0.43940494119452733 0.7392263165318437 L -0.442894141677155 0.7118810470618522 L -0.5558529311334335 0.7290428822794753 Z" fill="#1c3423" transform="matrix(1,0,0,1,0,0)" fill-rule="nonzero"></path></g><g clip-path="url(#j8d950f60-ebf9-4798-849b-56ff534a66897ce53ef6-76a4-4346-be80-8111bb1b2fde)"><path d=" M -0.5600068197157142 0.705721679575094 L -0.4476163646504645 0.6851544964899129 C -0.44929341695186076 0.6761170479768321 -0.4506536927074376 0.6670190392417568 -0.4529083963570928 0.6580980526940508 L -0.5646093965873242 0.6821125099543245 C -0.5626062507828786 0.6898828522841279 -0.5614742404794357 0.6978348752799157 -0.5600068197157142 0.705721679575094" fill="#1c3423" transform="matrix(1,0,0,1,0,0)" fill-rule="nonzero"></path></g><g clip-path="url(#j8d950f60-ebf9-4798-849b-56ff534a66897ce53ef6-76a4-4346-be80-8111bb1b2fde)"><path d=" M -0.8513480722971916 0.22684405338996244 L -0.7812146767485164 0.13664659044652522 C -0.7884306601231359 0.13096324653623737 -0.7956047171902205 0.12521934240395463 -0.8031887203754244 0.12002513874824075 L -0.8705410041909505 0.21231891706842348 C -0.8638980136859746 0.21682832436773386 -0.857650993863273 0.22187811518638306 -0.8513480722971916 0.22684405338996244" fill="#1c3423" transform="matrix(1,0,0,1,0,0)" fill-rule="nonzero"></path></g><g clip-path="url(#j8d950f60-ebf9-4798-849b-56ff534a66897ce53ef6-76a4-4346-be80-8111bb1b2fde)"><path d=" M -2.0648165328014882 1.1396403286469565 L -2.1709413341295765 1.1819765822999861 C -2.1675220108261737 1.190506256644033 -2.1643589038465954 1.1991477344748396 -2.160408513981084 1.2074538018453667 L -2.055634671451343 1.161870588597689 C -2.0591192134553555 1.1546406297872245 -2.0618351064878944 1.1470845774737106 -2.0648165328014882 1.1396403286469565" fill="#1c3423" transform="matrix(1,0,0,1,0,0)" fill-rule="nonzero"></path></g><g clip-path="url(#j8d950f60-ebf9-4798-849b-56ff534a66897ce53ef6-76a4-4346-be80-8111bb1b2fde)"><path d=" M -1.0148420377688823 0.1289181744242568 L -0.9684715416352714 0.024493717790639996 C -0.9768241937919484 0.020664448369118155 -0.9852047968203155 0.016891080690976223 -0.9938183237794322 0.013662755010788119 L -1.0369604942328547 0.11946146283582701 C -1.029432392791031 0.12224723304759105 -1.0221278983227267 0.12556406982146398 -1.0148420377688823 0.1289181744242568" fill="#1c3423" transform="matrix(1,0,0,1,0,0)" fill-rule="nonzero"></path></g><g clip-path="url(#SvgjsClipPath10007ce53ef6-76a4-4346-be80-8111bb1b2fde)"><path d=" M -0.9718188510846597 0.14961631001157205 L -0.9191687257780423 0.04821520599908377 L -0.9437282250362697 0.03569321548199053 L -0.9932431942349991 0.13865956830911547 Z" fill="#1c3423" transform="matrix(1,0,0,1,0,0)" fill-rule="nonzero"></path></g><g clip-path="url(#k8d950f60-ebf9-4798-849b-56ff534a66897ce53ef6-76a4-4346-be80-8111bb1b2fde)"><path d=" M -0.7466860332542102 0.3245230329890734 L -0.6614545085143524 0.2484314432918261 C -0.66733350852647 0.24136453123288615 -0.6739066218522207 0.23493583074419988 -0.6801769340679971 0.22822296305999928 L -0.7630605855859001 0.3068720575168762 C -0.7575868732132869 0.3127417405717636 -0.7517917258162392 0.3183225979525217 -0.7466860332542102 0.3245230329890734" fill="#1c3423" transform="matrix(1,0,0,1,0,0)" fill-rule="nonzero"></path></g><g clip-path="url(#SvgjsClipPath10007ce53ef6-76a4-4346-be80-8111bb1b2fde)"><path d=" M -1.1237671571798626 -0.028043368457845733 L -1.1506419203097402 -0.0342298280585525 L -1.1737526327187058 0.07766216979489335 L -1.1503111683280758 0.08308463890274179 Z" fill="#1c3423" transform="matrix(1,0,0,1,0,0)" fill-rule="nonzero"></path></g><g clip-path="url(#l8d950f60-ebf9-4798-849b-56ff534a66897ce53ef6-76a4-4346-be80-8111bb1b2fde)"><path d=" M -1.5288585681468838 0.08574339462052868 L -1.5570889485537234 -0.024970008143324687 C -1.5659819842297393 -0.022650085793059646 -1.5747911672906856 -0.02001804537559028 -1.5836469351377818 -0.017544393231030547 L -1.5520205238206142 0.09224663076705483 Z" fill="#1c3423" transform="matrix(1,0,0,1,0,0)" fill-rule="nonzero"></path></g><g clip-path="url(#SvgjsClipPath10007ce53ef6-76a4-4346-be80-8111bb1b2fde)"><path d=" M -1.1042119796858445 0.09546834846033139 L -1.0709224915031255 -0.013833535283180029 L -1.0974525272154938 -0.021370953682233892 L -1.127355301445115 0.08890455209181042 Z" fill="#1c3423" transform="matrix(1,0,0,1,0,0)" fill-rule="nonzero"></path></g><g clip-path="url(#SvgjsClipPath10007ce53ef6-76a4-4346-be80-8111bb1b2fde)"><path d=" M -0.7795093853662838 0.28979726970694414 L -0.6990201918564858 0.2087071324558124 L -0.7189584803286433 0.1896865642708081 L -0.7969460708221916 0.2731851349658896 Z" fill="#1c3423" transform="matrix(1,0,0,1,0,0)" fill-rule="nonzero"></path></g><g clip-path="url(#SvgjsClipPath10007ce53ef6-76a4-4346-be80-8111bb1b2fde)"><path d=" M -0.9300671321185139 0.17279462830625075 L -0.8713516676551796 0.07478023824686023 L -0.8952450044714635 0.061037726332639625 L -0.9509324578350542 0.1608037043512664 Z" fill="#1c3423" transform="matrix(1,0,0,1,0,0)" fill-rule="nonzero"></path></g><g clip-path="url(#SvgjsClipPath10007ce53ef6-76a4-4346-be80-8111bb1b2fde)"><path d=" M -0.8145214335470157 0.2572798430610933 L -0.7390727138986368 0.1714799839302067 L -0.7599100887434873 0.15344701321158022 L -0.832712792538552 0.24150623447073705 Z" fill="#1c3423" transform="matrix(1,0,0,1,0,0)" fill-rule="nonzero"></path></g><g clip-path="url(#m8d950f60-ebf9-4798-849b-56ff534a66897ce53ef6-76a4-4346-be80-8111bb1b2fde)"><path d=" M -0.8898550565286993 0.1985810636328178 L -0.8253025183607823 0.10430743190126426 C -0.8327421087089213 0.0989129136651058 -0.8406801562688644 0.0942497765715008 -0.8483526705477529 0.0891999857528516 L -0.9099936595813012 0.18540222763101094 C -0.9032994258115605 0.18982312383663652 -0.8963350002821504 0.19384339088137292 -0.8898550565286993 0.1985810636328178" fill="#1c3423" transform="matrix(1,0,0,1,0,0)" fill-rule="nonzero"></path></g><g clip-path="url(#SvgjsClipPath10007ce53ef6-76a4-4346-be80-8111bb1b2fde)"><path d=" M -1.5747031913527156 0.09904956284864092 L -1.609646439443756 -0.00973522976860658 L -1.63577118751662 -0.0008934373573554755 L -1.597492468737247 0.10675934495644948 Z" fill="#1c3423" transform="matrix(1,0,0,1,0,0)" fill-rule="nonzero"></path></g><g clip-path="url(#n8d950f60-ebf9-4798-849b-56ff534a66897ce53ef6-76a4-4346-be80-8111bb1b2fde)"><path d=" M -1.0369604942328547 1.5771320308165164 L -0.9938229822580469 1.6829307386415553 C -0.9852094552989303 1.6797024129613671 -0.9768288522705635 1.6759290452832254 -0.9684715416352712 1.6720997758617033 L -1.0148420377688823 1.5676753192280868 C -1.0221278983227267 1.5710340823094944 -1.0294370512696458 1.5743462606047522 -1.0369604942328547 1.5771320308165164" fill="#1c3423" transform="matrix(1,0,0,1,0,0)" fill-rule="nonzero"></path></g><g clip-path="url(#n8d950f60-ebf9-4798-849b-56ff534a66897ce53ef6-76a4-4346-be80-8111bb1b2fde)"><path d=" M -0.8705410041909505 1.48427457658392 L -0.8031887203754244 1.5765683549041025 C -0.7956047171902207 1.5713741512483888 -0.7884306601231359 1.565630247116106 -0.7812100182699013 1.5599469032058182 L -0.8513480722971916 1.469749440262381 C -0.857650993863273 1.4747153784659603 -0.8638933552073595 1.4797651692846097 -0.8705410041909505 1.48427457658392" fill="#1c3423" transform="matrix(1,0,0,1,0,0)" fill-rule="nonzero"></path></g><g clip-path="url(#n8d950f60-ebf9-4798-849b-56ff534a66897ce53ef6-76a4-4346-be80-8111bb1b2fde)"><path d=" M -0.9099983180599163 1.5112005829785622 L -0.8483573290263682 1.6074028248567218 C -0.8406848147474795 1.6023530340380725 -0.8327467671875364 1.5976898969444675 -0.8253118353180124 1.592295378708309 L -0.8898597150073144 1.4980217469767554 C -0.8963443172393806 1.5027594197282002 -0.9033040842901756 1.5067750282943217 -0.9099983180599163 1.5112005829785622" fill="#1c3423" transform="matrix(1,0,0,1,0,0)" fill-rule="nonzero"></path></g><g clip-path="url(#n8d950f60-ebf9-4798-849b-56ff534a66897ce53ef6-76a4-4346-be80-8111bb1b2fde)"><path d=" M -0.7630559271072854 1.389721436135467 L -0.6801769340679975 1.4683705305923438 C -0.6739066218522207 1.4616576629081433 -0.6673288500478549 1.4552289624194568 -0.6614498500357373 1.448162050360517 L -0.7466813747755952 1.3720704606632697 C -0.7517870673376243 1.3782708956998215 -0.757582214734672 1.3838517530805796 -0.7630559271072854 1.389721436135467" fill="#1c3423" transform="matrix(1,0,0,1,0,0)" fill-rule="nonzero"></path></g><g clip-path="url(#SvgjsClipPath10007ce53ef6-76a4-4346-be80-8111bb1b2fde)"><path d=" M -0.9509360038661949 1.5357873551583923 L -0.895248550502604 1.635553333177019 L -0.871350555207705 1.6218061627841835 L -0.9300706781496546 1.5237917727247932 Z" fill="#1c3423" transform="matrix(1,0,0,1,0,0)" fill-rule="nonzero"></path></g><g clip-path="url(#SvgjsClipPath10007ce53ef6-76a4-4346-be80-8111bb1b2fde)"><path d=" M -0.8327140026396282 1.4550825052505263 L -0.7599066403659489 1.543137068031068 L -0.7390692655210984 1.5251040973124417 L -0.8145226436480921 1.439304238181555 Z" fill="#1c3423" transform="matrix(1,0,0,1,0,0)" fill-rule="nonzero"></path></g><g clip-path="url(#SvgjsClipPath10007ce53ef6-76a4-4346-be80-8111bb1b2fde)"><path d=" M -0.7969437851688836 1.4234001129839986 L -0.7189561946753351 1.5069033421576952 L -0.6990179062031778 1.4878827739726905 L -0.7795070997129758 1.406787978242944 Z" fill="#1c3423" transform="matrix(1,0,0,1,0,0)" fill-rule="nonzero"></path></g><g clip-path="url(#SvgjsClipPath10007ce53ef6-76a4-4346-be80-8111bb1b2fde)"><path d=" M -0.9932467416636865 1.557927994747385 L -0.9437317724649574 1.6608990060531248 L -0.91917227320673 1.6483723570574167 L -0.9718223985133474 1.5469712530449282 Z" fill="#1c3423" transform="matrix(1,0,0,1,0,0)" fill-rule="nonzero"></path></g><g clip-path="url(#o8d950f60-ebf9-4798-849b-56ff534a66897ce53ef6-76a4-4346-be80-8111bb1b2fde)"><path d=" M -1.0817098398084495 1.5937395070789562 L -1.0451174902877027 1.7019792576982498 C -1.036448061585206 1.6989326126840463 -1.0276202446098 1.696300572266577 -1.0190859117871383 1.6928859074417895 L -1.058999756560373 1.585829410390703 C -1.066434688429897 1.5888341290973715 -1.0741491290163205 1.5910701988325668 -1.0817098398084495 1.5937395070789562" fill="#1c3423" transform="matrix(1,0,0,1,0,0)" fill-rule="nonzero"></path></g><g clip-path="url(#o8d950f60-ebf9-4798-849b-56ff534a66897ce53ef6-76a4-4346-be80-8111bb1b2fde)"><path d=" M -1.220812011252052 0.06955518143343847 C -1.212818061948729 0.07035643975521677 -1.204982500918316 0.07213132010752799 -1.1970677457514478 0.07344501107695517 L -1.1773530642528098 -0.039094515303974314 C -1.1864138051589654 -0.04061317933246106 -1.1954093273645112 -0.04257439882937186 -1.2045539208857368 -0.04353870390267482 Z" fill="#1c3423" transform="matrix(1,0,0,1,0,0)" fill-rule="nonzero"></path></g><g clip-path="url(#o8d950f60-ebf9-4798-849b-56ff534a66897ce53ef6-76a4-4346-be80-8111bb1b2fde)"><path d=" M -1.220812011252052 1.6270383122189047 L -1.2045539208857368 1.740132197555018 C -1.1954093273645112 1.7391678924817153 -1.1864138051589654 1.7372066729848041 -1.1773530642528098 1.7356880089563176 L -1.1970677457514478 1.6231484825753881 C -1.204982500918316 1.6244621735448153 -1.212818061948729 1.6262370538971263 -1.220812011252052 1.6270383122189047" fill="#1c3423" transform="matrix(1,0,0,1,0,0)" fill-rule="nonzero"></path></g><g clip-path="url(#SvgjsClipPath10007ce53ef6-76a4-4346-be80-8111bb1b2fde)"><path d=" M -1.1737504284375766 1.618923936982613 L -1.1506397160286108 1.730815934836059 L -1.1237649528987335 1.7246294752353521 L -1.1503136225255617 1.6135014678747646 Z" fill="#1c3423" transform="matrix(1,0,0,1,0,0)" fill-rule="nonzero"></path></g><g clip-path="url(#SvgjsClipPath10007ce53ef6-76a4-4346-be80-8111bb1b2fde)"><path d=" M -1.1273553593035641 1.6076876584725606 L -1.0974525850739432 1.7179585057679898 L -1.0709225493615748 1.7104210873689358 L -1.1042120375442934 1.6011192036254247 Z" fill="#1c3423" transform="matrix(1,0,0,1,0,0)" fill-rule="nonzero"></path></g><g clip-path="url(#p8d950f60-ebf9-4798-849b-56ff534a66897ce53ef6-76a4-4346-be80-8111bb1b2fde)"><path d=" M -0.6494635845593677 1.2366298534110491 L -0.5501494789663948 1.2931139066178035 C -0.5455795114450896 1.2851432497075554 -0.5408791065225649 1.2772424699765323 -0.5368355470847537 1.268982987392155 L -0.6378360219363528 1.2155642131140643 C -0.6413298808975951 1.2227941719245288 -0.6454759268649364 1.229670086360254 -0.6494635845593677 1.2366298534110491" fill="#1c3423" transform="matrix(1,0,0,1,0,0)" fill-rule="nonzero"></path></g><g clip-path="url(#p8d950f60-ebf9-4798-849b-56ff534a66897ce53ef6-76a4-4346-be80-8111bb1b2fde)"><path d=" M -0.5646093965873242 1.014485642176634 L -0.45290373787847793 1.0385000994369076 C -0.4506536927074376 1.0295791128892016 -0.44929341695186076 1.020476445675511 -0.44761636465046406 1.0114436556410453 L -0.5600068197157142 0.9908764725558643 C -0.5614742404794357 0.9987586183724275 -0.5626062507828786 1.0067152998468305 -0.5646093965873242 1.014485642176634" fill="#1c3423" transform="matrix(1,0,0,1,0,0)" fill-rule="nonzero"></path></g><g clip-path="url(#p8d950f60-ebf9-4798-849b-56ff534a66897ce53ef6-76a4-4346-be80-8111bb1b2fde)"><path d=" M -0.5761484481166548 1.06080489504548 L -0.46611984170920495 1.0915974386905642 C -0.46367414043633537 1.0827370123648532 -0.46089768718180113 1.0739604386542119 -0.459015661821345 1.0649555994914361 L -0.569938696122873 1.0375684037139097 C -0.5715458712450447 1.0454365740946279 -0.5740195233896044 1.0530764790232114 -0.5761484481166548 1.06080489504548" fill="#1c3423" transform="matrix(1,0,0,1,0,0)" fill-rule="nonzero"></path></g><g clip-path="url(#SvgjsClipPath10007ce53ef6-76a4-4346-be80-8111bb1b2fde)"><path d=" M -0.5903863269865792 1.1063595705215723 L -0.48244471899864516 1.1438230555433222 L -0.4736169020232388 1.1176936489918432 L -0.5826625694429257 1.083574951615656 Z" fill="#1c3423" transform="matrix(1,0,0,1,0,0)" fill-rule="nonzero"></path></g><g clip-path="url(#SvgjsClipPath10007ce53ef6-76a4-4346-be80-8111bb1b2fde)"><path d=" M -0.555852938680188 0.9675412192276058 L -0.44289414922390935 0.9847030544452291 L -0.43940494874128166 0.9573624434538526 L -0.5528342445376744 0.9436618578471667 Z" fill="#1c3423" transform="matrix(1,0,0,1,0,0)" fill-rule="nonzero"></path></g><g clip-path="url(#SvgjsClipPath10007ce53ef6-76a4-4346-be80-8111bb1b2fde)"><path d=" M -0.5502837135729044 0.92009798978482 L -0.43649105644454256 0.9303885690453331 L -0.434404058025027 0.9029128621741218 L -0.5484575899558284 0.8960835325245462 Z" fill="#1c3423" transform="matrix(1,0,0,1,0,0)" fill-rule="nonzero"></path></g><g clip-path="url(#SvgjsClipPath10007ce53ef6-76a4-4346-be80-8111bb1b2fde)"><path d=" M -0.5468981557755659 0.8553356581733993 L -0.5474944410382847 0.8783112747025302 L -0.4332918377918036 0.8817492319203929 L -0.4326396507857049 0.8553356581733993 Z" fill="#1c3423" transform="matrix(1,0,0,1,0,0)" fill-rule="nonzero"></path></g><g clip-path="url(#SvgjsClipPath10007ce53ef6-76a4-4346-be80-8111bb1b2fde)"><path d=" M -0.7014738503780946 1.316704381286245 L -0.6097204555772506 1.3847927047229394 L -0.5937418739278351 1.3623388377986874 L -0.6875263654048145 1.297078210881292 Z" fill="#1c3423" transform="matrix(1,0,0,1,0,0)" fill-rule="nonzero"></path></g><g clip-path="url(#q8d950f60-ebf9-4798-849b-56ff534a66897ce53ef6-76a4-4346-be80-8111bb1b2fde)"><path d=" M -0.731159324030449 1.354149293431403 L -0.6436824125981659 1.4276554274973308 C -0.637528562347764 1.4208260978477556 -0.6321060932399156 1.4134004829354614 -0.6263575306290181 1.4062357428256067 L -0.7160285854889612 1.335426867877758 C -0.7210550839145355 1.3416785461790748 -0.7257461718798304 1.3482097331972909 -0.731159324030449 1.354149293431403" fill="#1c3423" transform="matrix(1,0,0,1,0,0)" fill-rule="nonzero"></path></g><g clip-path="url(#SvgjsClipPath10007ce53ef6-76a4-4346-be80-8111bb1b2fde)"><path d=" M -0.6072791772963133 1.151004211939933 L -0.5018298553673985 1.194994225501284 L -0.4917069813370252 1.1693399837685339 L -0.5984606772781369 1.128620222194906 Z" fill="#1c3423" transform="matrix(1,0,0,1,0,0)" fill-rule="nonzero"></path></g><g clip-path="url(#SvgjsClipPath10007ce53ef6-76a4-4346-be80-8111bb1b2fde)"><path d=" M -0.6743090290423805 1.277412345178021 L -0.5786005858974101 1.3398219831830427 L -0.5637353806369769 1.3166087842445473 L -0.6613072152279433 1.2571572801600444 Z" fill="#1c3423" transform="matrix(1,0,0,1,0,0)" fill-rule="nonzero"></path></g><g clip-path="url(#r8d950f60-ebf9-4798-849b-56ff534a66897ce53ef6-76a4-4346-be80-8111bb1b2fde)"><path d=" M -1.2682912252960306 0.06429575907711468 C -1.2602879590354776 0.06490136129706339 -1.2522660588604648 0.0653718676371774 -1.2443280113005217 0.06656909664122984 L -1.2314799272803791 -0.046962685684692515 C -1.2405779360154547 -0.04829035208996467 -1.2497458219297553 -0.04887266191683844 -1.2589043908868254 -0.049576092187701926 Z" fill="#1c3423" transform="matrix(1,0,0,1,0,0)" fill-rule="nonzero"></path></g><g clip-path="url(#r8d950f60-ebf9-4798-849b-56ff534a66897ce53ef6-76a4-4346-be80-8111bb1b2fde)"><path d=" M -0.6270330100281911 1.1944752804240044 L -0.5244626278833404 1.2448148003375867 C -0.5201255842927843 1.236704389068889 -0.5167155779466119 1.2281467638531522 -0.5128117728672501 1.2198267210467801 L -0.6168775266475128 1.172664283548621 C -0.6203015084295305 1.1799175347521604 -0.6232130575638994 1.1874130268436796 -0.6270330100281911 1.1944752804240044" fill="#1c3423" transform="matrix(1,0,0,1,0,0)" fill-rule="nonzero"></path></g><g clip-path="url(#r8d950f60-ebf9-4798-849b-56ff534a66897ce53ef6-76a4-4346-be80-8111bb1b2fde)"><path d=" M -1.84414440080941 1.4470673078859946 L -1.9183027218814364 1.533989860363094 C -1.911446139998862 1.5401037994126092 -1.9043682879713435 1.5459649756689866 -1.8970833517901566 1.551561641698836 L -1.8256083144003643 1.4624263118796168 C -1.8319863129677043 1.4575520538712814 -1.8381698035386815 1.4524284126517508 -1.8441444008094097 1.4470673078859946" fill="#1c3423" transform="matrix(1,0,0,1,0,0)" fill-rule="nonzero"></path></g><g clip-path="url(#SvgjsClipPath10007ce53ef6-76a4-4346-be80-8111bb1b2fde)"><path d=" M -1.7679245565397244 1.5046045859723798 L -1.8310516002514545 1.599837864298621 L -1.807847718270189 1.6147170449948993 L -1.7476601745645177 1.517597082829587 Z" fill="#1c3423" transform="matrix(1,0,0,1,0,0)" fill-rule="nonzero"></path></g><g clip-path="url(#s8d950f60-ebf9-4798-849b-56ff534a66897ce53ef6-76a4-4346-be80-8111bb1b2fde)"><path d=" M -1.8069697414617893 1.4770818856023753 L -1.8757428612548872 1.5683228477555704 C -1.8684523422224277 1.5739037051363285 -1.8608357296869191 1.5790559824845076 -1.85338682238155 1.5844318668062058 L -1.787427423671906 1.4911411740624152 C -1.793926001339817 1.4864314521826603 -1.8006016011950978 1.481963971190885 -1.8069697414617893 1.4770818856023753" fill="#1c3423" transform="matrix(1,0,0,1,0,0)" fill-rule="nonzero"></path></g><g clip-path="url(#s8d950f60-ebf9-4798-849b-56ff534a66897ce53ef6-76a4-4346-be80-8111bb1b2fde)"><path d=" M -2.0458798172315538 1.183462636978168 L -2.1492188483478776 1.2321949817695788 C -2.1456085274212606 1.2406547789344007 -2.141075827728875 1.2486673621521835 -2.136990341983529 1.256898893864871 L -2.0351932672887667 1.2050174175297268 C -2.038747686472004 1.1978293850267974 -2.0427679535167402 1.190864959497387 -2.0458798172315538 1.183462636978168" fill="#1c3423" transform="matrix(1,0,0,1,0,0)" fill-rule="nonzero"></path></g><g clip-path="url(#s8d950f60-ebf9-4798-849b-56ff534a66897ce53ef6-76a4-4346-be80-8111bb1b2fde)"><path d=" M -1.6852669876451745 1.5523768754564593 L -1.7363798150088452 1.6545652623548812 C -1.7282541533950342 1.6588610529853745 -1.7199668502393815 1.662843869034116 -1.7115361485551033 1.6665049430451007 L -1.6635864281710107 1.5627978921181922 C -1.6709541634812024 1.5596252706075606 -1.6781872251069574 1.5561486142137462 -1.685266987645175 1.552376875456459" fill="#1c3423" transform="matrix(1,0,0,1,0,0)" fill-rule="nonzero"></path></g><g clip-path="url(#s8d950f60-ebf9-4798-849b-56ff534a66897ce53ef6-76a4-4346-be80-8111bb1b2fde)"><path d=" M -1.2682912252960306 1.6322977345752285 L -1.2589043908868254 1.7461695858400452 C -1.2497458219297553 1.7454661555691815 -1.2405779360154547 1.7448838457423077 -1.2314799272803791 1.7435561793370358 L -1.2443280113005217 1.6300243970111135 C -1.2522660588604648 1.6312216260151657 -1.2602879590354776 1.6316921323552798 -1.2682912252960306 1.6322977345752285" fill="#1c3423" transform="matrix(1,0,0,1,0,0)" fill-rule="nonzero"></path></g><g clip-path="url(#s8d950f60-ebf9-4798-849b-56ff534a66897ce53ef6-76a4-4346-be80-8111bb1b2fde)"><path d=" M -1.7272864647523845 1.529694743080073 L -1.7845205330161522 1.6285849271190815 C -1.7765219252342144 1.633108309854237 -1.7686537548534962 1.6378692749987567 -1.7605386851061835 1.6421783677176223 L -1.7063605788138494 1.5415831805055273 C -1.713450783265864 1.5378284467418455 -1.7202987468298994 1.5336358159883543 -1.7272864647523845 1.529694743080073" fill="#1c3423" transform="matrix(1,0,0,1,0,0)" fill-rule="nonzero"></path></g><g clip-path="url(#s8d950f60-ebf9-4798-849b-56ff534a66897ce53ef6-76a4-4346-be80-8111bb1b2fde)"><path d=" M -1.944287715595851 1.344753142064968 L -2.0328873203743463 1.4168990003753188 C -2.0272971460363585 1.424189519407778 -2.0209895659916617 1.430893070134749 -2.0150686396720094 1.4379133974075389 L -1.9287051046287091 1.3631075478080288 C -1.933871357412733 1.3569630145148568 -1.9394289224004162 1.3511492332033495 -1.944287715595851 1.344753142064968" fill="#1c3423" transform="matrix(1,0,0,1,0,0)" fill-rule="nonzero"></path></g><g clip-path="url(#SvgjsClipPath10007ce53ef6-76a4-4346-be80-8111bb1b2fde)"><path d=" M -1.999917371548266 1.2671263986812566 L -2.0965808028093096 1.3280406650508667 L -2.0816923051558014 1.3512398885535168 L -1.986934191648289 1.2874000976136935 Z" fill="#1c3423" transform="matrix(1,0,0,1,0,0)" fill-rule="nonzero"></path></g><g clip-path="url(#SvgjsClipPath10007ce53ef6-76a4-4346-be80-8111bb1b2fde)"><path d=" M -2.024266135521075 1.22604200844503 L -2.1244513766150512 1.2809747882729927 L -2.1107135231794456 1.3048774420465068 L -2.012261236130246 1.2469026756829555 Z" fill="#1c3423" transform="matrix(1,0,0,1,0,0)" fill-rule="nonzero"></path></g><g clip-path="url(#t8d950f60-ebf9-4798-849b-56ff534a66897ce53ef6-76a4-4346-be80-8111bb1b2fde)"><path d=" M -1.973226184752169 1.3067399565666493 L -2.0660230787627705 1.373398127068542 C -2.060693779227222 1.380879643724216 -2.055466966221203 1.3884403545163448 -2.0496578433883106 1.3955631683186647 L -1.9589339723613794 1.326109910647778 C -1.9640396649234084 1.3199048171326113 -1.968572364615794 1.3132804605420956 -1.973226184752169 1.3067399565666493" fill="#1c3423" transform="matrix(1,0,0,1,0,0)" fill-rule="nonzero"></path></g><g clip-path="url(#t8d950f60-ebf9-4798-849b-56ff534a66897ce53ef6-76a4-4346-be80-8111bb1b2fde)"><path d=" M -1.6419990382691467 1.5725667217738262 L -1.6867856516736612 1.6776806332424614 C -1.678325854508839 1.681267661776004 -1.6697123275497225 1.684500645934807 -1.661182653205676 1.6879153107595946 L -1.6196523163530396 1.5814737328856872 C -1.6270919067011786 1.5784829896148638 -1.6346153496643876 1.5756925609244847 -1.6419990382691467 1.5725667217738262" fill="#1c3423" transform="matrix(1,0,0,1,0,0)" fill-rule="nonzero"></path></g><g clip-path="url(#SvgjsClipPath10007ce53ef6-76a4-4346-be80-8111bb1b2fde)"><path d=" M -1.9130178942155485 1.3808797431247521 L -1.9971034332161188 1.4582384390052767 L -1.9780921819883446 1.478186044434664 L -1.896396442517264 1.398302453144815 Z" fill="#1c3423" transform="matrix(1,0,0,1,0,0)" fill-rule="nonzero"></path></g><g clip-path="url(#SvgjsClipPath10007ce53ef6-76a4-4346-be80-8111bb1b2fde)"><path d=" M -1.8795326662179301 1.4149659163660673 L -1.9587966798519858 1.4972532826212512 L -1.9388024896364484 1.516213290584261 L -1.8620773468475624 1.4315501002354316 Z" fill="#1c3423" transform="matrix(1,0,0,1,0,0)" fill-rule="nonzero"></path></g><g clip-path="url(#SvgjsClipPath10007ce53ef6-76a4-4346-be80-8111bb1b2fde)"><path d=" M -1.422671032432811 1.7450944872173788 L -1.3951999840402145 1.7471954610727392 L -1.387518152804096 1.633197830885318 L -1.4115326100643695 1.6313810242254718 Z" fill="#1c3423" transform="matrix(1,0,0,1,0,0)" fill-rule="nonzero"></path></g><g clip-path="url(#SvgjsClipPath10007ce53ef6-76a4-4346-be80-8111bb1b2fde)"><path d=" M -1.5974901964654522 1.5898305006787556 L -1.6357735737234402 1.6974832829925603 L -1.6096488256505763 1.7063204169251966 L -1.574700919080921 1.5975402827865641 Z" fill="#1c3423" transform="matrix(1,0,0,1,0,0)" fill-rule="nonzero"></path></g><g clip-path="url(#SvgjsClipPath10007ce53ef6-76a4-4346-be80-8111bb1b2fde)"><path d=" M -1.422671032432811 -0.048506951552800985 L -1.4115326100643695 0.06520651143910597 L -1.387518152804096 0.06338970477925987 L -1.3951999840402145 -0.050607925408161496 Z" fill="#1c3423" transform="matrix(1,0,0,1,0,0)" fill-rule="nonzero"></path></g><g clip-path="url(#SvgjsClipPath10007ce53ef6-76a4-4346-be80-8111bb1b2fde)"><path d=" M -1.3681212760965404 -0.05205672113184734 L -1.3638354757707494 0.06211793124294365 L -1.339746482852636 0.061507670544379944 L -1.3405896674819493 -0.052746175966865864 Z" fill="#1c3423" transform="matrix(1,0,0,1,0,0)" fill-rule="nonzero"></path></g><g clip-path="url(#SvgjsClipPath10007ce53ef6-76a4-4346-be80-8111bb1b2fde)"><path d=" M -1.316020721015104 0.061815414813309155 L -1.2919317280969904 0.062476918776637747 L -1.285954900033958 -0.051623197940313406 L -1.3134818501699344 -0.052410480826246726 Z" fill="#1c3423" transform="matrix(1,0,0,1,0,0)" fill-rule="nonzero"></path></g><g clip-path="url(#SvgjsClipPath10007ce53ef6-76a4-4346-be80-8111bb1b2fde)"><path d=" M -1.316020721015104 1.6347721208512687 L -1.3134818501699344 1.7489980164908245 L -1.285954900033958 1.748210733604891 L -1.2919317280969904 1.63411061688794 Z" fill="#1c3423" transform="matrix(1,0,0,1,0,0)" fill-rule="nonzero"></path></g><g clip-path="url(#SvgjsClipPath10007ce53ef6-76a4-4346-be80-8111bb1b2fde)"><path d=" M -1.3681212760965404 1.748644256796425 L -1.3405896674819493 1.7493337116314436 L -1.339746482852636 1.6350798651201977 L -1.3638354757707494 1.634464945943019 Z" fill="#1c3423" transform="matrix(1,0,0,1,0,0)" fill-rule="nonzero"></path></g><g clip-path="url(#u8d950f60-ebf9-4798-849b-56ff534a66897ce53ef6-76a4-4346-be80-8111bb1b2fde)"><path d=" M -1.530633448499195 1.7276847426957647 C -1.521689169558414 1.729813667422815 -1.5127215982245583 1.7318354471417206 -1.5036422234039426 1.7332982094268277 L -1.4822271972108334 1.6210661426344875 C -1.4901559278135466 1.6198269873229 -1.4979775134081146 1.618038131534744 -1.5057758066096079 1.616165423131518 Z" fill="#1c3423" transform="matrix(1,0,0,1,0,0)" fill-rule="nonzero"></path></g><g clip-path="url(#u8d950f60-ebf9-4798-849b-56ff534a66897ce53ef6-76a4-4346-be80-8111bb1b2fde)"><path d=" M -1.5520205238206142 1.6043468628852882 L -1.5836469351377815 1.7141378868833737 C -1.5747911672906856 1.716611539027933 -1.5659819842297393 1.7192482379240175 -1.5570889485537234 1.7215635017956679 L -1.5288585681468836 1.6108500990318142 Z" fill="#1c3423" transform="matrix(1,0,0,1,0,0)" fill-rule="nonzero"></path></g><g clip-path="url(#u8d950f60-ebf9-4798-849b-56ff534a66897ce53ef6-76a4-4346-be80-8111bb1b2fde)"><path d=" M -1.4769165315897448 1.7380684915285773 C -1.4678884000338939 1.7398061040519686 -1.4587158556409785 1.740570094544827 -1.4496178469059031 1.7418511761639492 L -1.4350647597126742 1.6285290253757014 C -1.443002807272617 1.627392356593644 -1.451029365926245 1.6267960713309253 -1.458902194785578 1.6252401394735188 Z" fill="#1c3423" transform="matrix(1,0,0,1,0,0)" fill-rule="nonzero"></path></g><g clip-path="url(#u8d950f60-ebf9-4798-849b-56ff534a66897ce53ef6-76a4-4346-be80-8111bb1b2fde)"><path d=" M -1.4769165315897448 -0.04147033939761924 L -1.458902194785578 0.07135801265743963 C -1.451029365926245 0.06980673927864794 -1.443002807272617 0.06920579553731421 -1.4350647597126742 0.06807378523387164 L -1.4496178469059031 -0.045253024032991154 C -1.4587158556409785 -0.0439719424138689 -1.4678884000338939 -0.043207951921010526 -1.4769165315897448 -0.04147033939761924" fill="#1c3423" transform="matrix(1,0,0,1,0,0)" fill-rule="nonzero"></path></g><g clip-path="url(#u8d950f60-ebf9-4798-849b-56ff534a66897ce53ef6-76a4-4346-be80-8111bb1b2fde)"><path d=" M -1.530633448499195 -0.03109124904342138 L -1.5057758066096079 0.08042807052082526 C -1.4979775134081146 0.07855536211759928 -1.4901559278135466 0.0767665063294431 -1.4822271972108334 0.07552735101785576 L -1.5036422234039426 -0.03670471577448439 C -1.5127215982245583 -0.0352419534893775 -1.521689169558414 -0.03322017377047183 -1.530633448499195 -0.03109124904342138" fill="#1c3423" transform="matrix(1,0,0,1,0,0)" fill-rule="nonzero"></path></g></g></g><defs><clipPath id="SvgjsClipPath1002"><path d=" M -2.292336628357602 -0.11037389659193675 h 1.9173366283576023 v 1.9173412868362174 h -1.9173366283576023 Z"></path></clipPath><clipPath id="a8d950f60-ebf9-4798-849b-56ff534a66897ce53ef6-76a4-4346-be80-8111bb1b2fde"><path d=" M -2.292336628357602 1.8069673902442802 L -0.3749953415213847 1.8069673902442802 L -0.3749953415213847 -0.1103738965919371 L -2.292336628357602 -0.1103738965919371 Z"></path></clipPath><clipPath id="SvgjsClipPath10007ce53ef6-76a4-4346-be80-8111bb1b2fde"><path d=" M -2.292336628357602 -0.11037389659193675 L -0.3749999999999998 -0.11037389659193675 L -0.3749999999999998 1.8069673902442807 L -2.2923366283576017 1.8069673902442807 Z"></path></clipPath><clipPath id="b8d950f60-ebf9-4798-849b-56ff534a66897ce53ef6-76a4-4346-be80-8111bb1b2fde"><path d=" M -2.292336628357602 1.8069673902442802 L -0.3749953415213847 1.8069673902442802 L -0.3749953415213847 -0.1103738965919371 L -2.292336628357602 -0.1103738965919371 Z"></path></clipPath><clipPath id="c8d950f60-ebf9-4798-849b-56ff534a66897ce53ef6-76a4-4346-be80-8111bb1b2fde"><path d=" M -2.292336628357602 1.8069673902442802 L -0.3749953415213847 1.8069673902442802 L -0.3749953415213847 -0.1103738965919371 L -2.292336628357602 -0.1103738965919371 Z"></path></clipPath><clipPath id="d8d950f60-ebf9-4798-849b-56ff534a66897ce53ef6-76a4-4346-be80-8111bb1b2fde"><path d=" M -2.292336628357602 1.8069673902442802 L -0.3749953415213847 1.8069673902442802 L -0.3749953415213847 -0.1103738965919371 L -2.292336628357602 -0.1103738965919371 Z"></path></clipPath><clipPath id="e8d950f60-ebf9-4798-849b-56ff534a66897ce53ef6-76a4-4346-be80-8111bb1b2fde"><path d=" M -2.292336628357602 1.8069673902442802 L -0.3749953415213847 1.8069673902442802 L -0.3749953415213847 -0.1103738965919371 L -2.292336628357602 -0.1103738965919371 Z"></path></clipPath><clipPath id="f8d950f60-ebf9-4798-849b-56ff534a66897ce53ef6-76a4-4346-be80-8111bb1b2fde"><path d=" M -2.292336628357602 1.8069673902442802 L -0.3749953415213847 1.8069673902442802 L -0.3749953415213847 -0.1103738965919371 L -2.292336628357602 -0.1103738965919371 Z"></path></clipPath><clipPath id="g8d950f60-ebf9-4798-849b-56ff534a66897ce53ef6-76a4-4346-be80-8111bb1b2fde"><path d=" M -2.292336628357602 1.8069673902442802 L -0.3749953415213847 1.8069673902442802 L -0.3749953415213847 -0.1103738965919371 L -2.292336628357602 -0.1103738965919371 Z"></path></clipPath><clipPath id="h8d950f60-ebf9-4798-849b-56ff534a66897ce53ef6-76a4-4346-be80-8111bb1b2fde"><path d=" M -2.292336628357602 1.8069673902442802 L -0.3749953415213847 1.8069673902442802 L -0.3749953415213847 -0.1103738965919371 L -2.292336628357602 -0.1103738965919371 Z"></path></clipPath><clipPath id="i8d950f60-ebf9-4798-849b-56ff534a66897ce53ef6-76a4-4346-be80-8111bb1b2fde"><path d=" M -2.292336628357602 1.8069673902442802 L -0.3749953415213847 1.8069673902442802 L -0.3749953415213847 -0.1103738965919371 L -2.292336628357602 -0.1103738965919371 Z"></path></clipPath><clipPath id="j8d950f60-ebf9-4798-849b-56ff534a66897ce53ef6-76a4-4346-be80-8111bb1b2fde"><path d=" M -2.292336628357602 1.8069673902442802 L -0.3749953415213847 1.8069673902442802 L -0.3749953415213847 -0.1103738965919371 L -2.292336628357602 -0.1103738965919371 Z"></path></clipPath><clipPath id="k8d950f60-ebf9-4798-849b-56ff534a66897ce53ef6-76a4-4346-be80-8111bb1b2fde"><path d=" M -2.292336628357602 1.8069673902442802 L -0.3749953415213847 1.8069673902442802 L -0.3749953415213847 -0.1103738965919371 L -2.292336628357602 -0.1103738965919371 Z"></path></clipPath><clipPath id="l8d950f60-ebf9-4798-849b-56ff534a66897ce53ef6-76a4-4346-be80-8111bb1b2fde"><path d=" M -2.292336628357602 1.8069673902442802 L -0.3749953415213847 1.8069673902442802 L -0.3749953415213847 -0.1103738965919371 L -2.292336628357602 -0.1103738965919371 Z"></path></clipPath><clipPath id="m8d950f60-ebf9-4798-849b-56ff534a66897ce53ef6-76a4-4346-be80-8111bb1b2fde"><path d=" M -2.292336628357602 1.8069673902442802 L -0.3749953415213847 1.8069673902442802 L -0.3749953415213847 -0.1103738965919371 L -2.292336628357602 -0.1103738965919371 Z"></path></clipPath><clipPath id="n8d950f60-ebf9-4798-849b-56ff534a66897ce53ef6-76a4-4346-be80-8111bb1b2fde"><path d=" M -2.292336628357602 1.8069673902442802 L -0.3749953415213847 1.8069673902442802 L -0.3749953415213847 -0.1103738965919371 L -2.292336628357602 -0.1103738965919371 Z"></path></clipPath><clipPath id="o8d950f60-ebf9-4798-849b-56ff534a66897ce53ef6-76a4-4346-be80-8111bb1b2fde"><path d=" M -2.292336628357602 1.8069673902442802 L -0.3749953415213847 1.8069673902442802 L -0.3749953415213847 -0.1103738965919371 L -2.292336628357602 -0.1103738965919371 Z"></path></clipPath><clipPath id="p8d950f60-ebf9-4798-849b-56ff534a66897ce53ef6-76a4-4346-be80-8111bb1b2fde"><path d=" M -2.292336628357602 1.8069673902442802 L -0.3749953415213847 1.8069673902442802 L -0.3749953415213847 -0.1103738965919371 L -2.292336628357602 -0.1103738965919371 Z"></path></clipPath><clipPath id="q8d950f60-ebf9-4798-849b-56ff534a66897ce53ef6-76a4-4346-be80-8111bb1b2fde"><path d=" M -2.292336628357602 1.8069673902442802 L -0.3749953415213847 1.8069673902442802 L -0.3749953415213847 -0.1103738965919371 L -2.292336628357602 -0.1103738965919371 Z"></path></clipPath><clipPath id="r8d950f60-ebf9-4798-849b-56ff534a66897ce53ef6-76a4-4346-be80-8111bb1b2fde"><path d=" M -2.292336628357602 1.8069673902442802 L -0.3749953415213847 1.8069673902442802 L -0.3749953415213847 -0.1103738965919371 L -2.292336628357602 -0.1103738965919371 Z"></path></clipPath><clipPath id="s8d950f60-ebf9-4798-849b-56ff534a66897ce53ef6-76a4-4346-be80-8111bb1b2fde"><path d=" M -2.292336628357602 1.8069673902442802 L -0.3749953415213847 1.8069673902442802 L -0.3749953415213847 -0.1103738965919371 L -2.292336628357602 -0.1103738965919371 Z"></path></clipPath><clipPath id="t8d950f60-ebf9-4798-849b-56ff534a66897ce53ef6-76a4-4346-be80-8111bb1b2fde"><path d=" M -2.292336628357602 1.8069673902442802 L -0.3749953415213847 1.8069673902442802 L -0.3749953415213847 -0.1103738965919371 L -2.292336628357602 -0.1103738965919371 Z"></path></clipPath><clipPath id="u8d950f60-ebf9-4798-849b-56ff534a66897ce53ef6-76a4-4346-be80-8111bb1b2fde"><path d=" M -2.292336628357602 1.8069673902442802 L -0.3749953415213847 1.8069673902442802 L -0.3749953415213847 -0.1103738965919371 L -2.292336628357602 -0.1103738965919371 Z"></path></clipPath></defs></svg>